<?xml version="1.0" encoding="UTF-8"?>
<svg id="_선" data-name="선" xmlns="http://www.w3.org/2000/svg" viewBox="0 0 500 300">
  <defs>
    <style>
      .cls-1 {
        fill: #00f6ff;
      }

      .cls-1, .cls-2 {
        stroke-width: 0px;
      }

      .cls-3 {
        fill: none;
        stroke: #044;
        stroke-miterlimit: 10;
      }

      .cls-4 {
        opacity: .4;
      }

      .cls-5 {
        opacity: .81;
      }

      .cls-2 {
        fill: #fff;
      }
    </style>
  </defs>
  <g class="cls-5">
    <g class="cls-4">
      <path class="cls-1" d="M-35.27,203.91l-15.95-32.24,17.1-8.1,17.36-7.49c42.31-17.33,86.51-29.55,131.33-37.22,44.86-7.54,90.32-10.54,135.62-9.67,45.28.96,90.33,5.82,134.71,13.57,44.4,7.79,88.1,18.63,131.08,31.47l16.45,5.04,16.37,5.24-11.19,34.19-15.96-5.11-16.01-4.91c-41.82-12.5-84.17-22.99-126.97-30.5-42.79-7.47-86-12.12-129.23-13.04-43.19-.82-86.41,2.05-128.87,9.18-42.41,7.27-84.02,18.79-123.64,35.01l-16.24,7.01-15.97,7.57Z"/>
      <path class="cls-2" d="M-35.5,204.58l-16.39-33.14,17.56-8.32,17.38-7.5c41.04-16.81,85.26-29.34,131.45-37.25,43.54-7.31,89.19-10.57,135.71-9.68,43.03.91,88.38,5.48,134.79,13.58,42.03,7.38,84.93,17.67,131.14,31.49l16.45,5.04,16.86,5.4-11.5,35.14-16.43-5.26-16-4.9c-44.8-13.39-86.32-23.36-126.91-30.48-44.55-7.77-88.01-12.16-129.16-13.03-44.2-.85-87.52,2.24-128.77,9.17-43.47,7.45-85.04,19.22-123.53,34.98l-16.23,7-16.4,7.77ZM-50.54,171.91l15.5,31.35,15.53-7.36,16.26-7.01c38.57-15.8,80.2-27.59,123.75-35.05,41.31-6.94,84.7-10.02,128.96-9.18,41.2.87,84.71,5.26,129.31,13.04,40.63,7.13,82.19,17.11,127.03,30.51l16.01,4.91,15.49,4.96,10.88-33.24-15.89-5.09-16.44-5.04c-46.17-13.8-89.03-24.09-131.02-31.46-46.36-8.09-91.66-12.66-134.64-13.56-46.45-.89-92.05,2.37-135.53,9.67-46.12,7.9-90.27,20.41-131.23,37.19l-17.35,7.49-16.62,7.88Z"/>
    </g>
    <g class="cls-4">
      <path class="cls-1" d="M-41.16,192.78l-4.79-9.67,10.02-4.75c44.29-20.81,91.32-35.46,139.27-44.63,47.98-9.17,96.9-12.91,145.66-11.98,48.77.95,97.35,6.52,145.19,15.51,47.86,9,94.99,21.42,141.3,36.21l9.74,3.12-3.36,10.26-9.66-3.09c-45.95-14.68-92.66-26.98-140.01-35.88-47.33-8.9-95.32-14.39-143.41-15.33-48.07-.91-96.25,2.78-143.42,11.79-47.15,9.01-93.31,23.41-136.71,43.8l-9.82,4.65Z"/>
      <path class="cls-2" d="M-41.23,192.98l-4.92-9.94,10.16-4.81c42.89-20.15,89.76-35.17,139.31-44.64,46.6-8.91,95.61-12.94,145.69-11.99,46.42.91,95.28,6.13,145.22,15.52,45.72,8.6,91.94,20.44,141.32,36.21l9.88,3.16-3.45,10.54-.14-.05-9.66-3.09c-48.94-15.63-94.73-27.37-139.99-35.88-49.35-9.27-97.59-14.43-143.39-15.33-49.32-.94-97.55,3.03-143.39,11.79-48.64,9.29-94.62,24.02-136.67,43.78l-9.95,4.71ZM-45.75,183.18l4.66,9.4,9.69-4.59c42.07-19.77,88.08-34.51,136.75-43.81,45.86-8.77,94.12-12.74,143.45-11.8,45.81.9,94.07,6.05,143.44,15.33,45.27,8.51,91.08,20.25,140.02,35.89l9.52,3.05,3.26-9.97-9.59-3.07c-49.36-15.77-95.57-27.61-141.28-36.21-49.93-9.38-98.77-14.6-145.17-15.51-4.78-.09-9.57-.14-14.33-.14-45.07,0-89.17,4.07-131.3,12.12-49.52,9.46-96.37,24.47-139.24,44.62l-9.88,4.68Z"/>
    </g>
  </g>
  <polyline class="cls-3" points="0 174.45 85.3 137.3 150.86 137.3 227.84 121.46 324.97 137.55 428.7 144.19 541.77 186.65"/>
</svg>