<?xml version="1.0" encoding="UTF-8"?>
<svg id="_선" data-name="선" xmlns="http://www.w3.org/2000/svg" viewBox="0 0 500 300">
  <defs>
    <style>
      .cls-1 {
        fill: #00f6ff;
      }

      .cls-1, .cls-2 {
        stroke-width: 0px;
      }

      .cls-3 {
        stroke: #044;
      }

      .cls-3, .cls-4 {
        fill: none;
        stroke-miterlimit: 10;
      }

      .cls-4 {
        stroke: #108;
      }

      .cls-5 {
        opacity: .4;
      }

      .cls-6 {
        opacity: .81;
      }

      .cls-2 {
        fill: #fff;
      }
    </style>
  </defs>
  <g class="cls-6">
    <g class="cls-5">
      <path class="cls-1" d="M-361.98,307.68l-47.81-96.74,25.96-12.31c4.34-2.02,8.63-4.15,13.01-6.09l13.18-5.69,13.18-5.68,6.59-2.84c2.2-.93,4.38-1.94,6.61-2.78l26.7-10.45c44.67-17.03,90.19-31.59,136.25-43.81l34.67-8.61c1.45-.35,2.89-.73,4.34-1.06l4.36-.95,8.72-1.89,17.44-3.77,8.72-1.88c2.9-.66,5.84-1.12,8.75-1.69l17.53-3.25,17.53-3.24,17.6-2.75c23.44-3.89,47-6.73,70.55-9.55l35.39-3.5c2.95-.32,5.9-.51,8.86-.73l8.86-.64,17.72-1.27c47.27-3,94.62-3.98,141.88-3.06l35.4,1.1c2.95.06,5.89.27,8.84.42l8.83.48,17.66.97,8.83.49c2.94.19,5.88.45,8.81.66l17.62,1.37c5.87.47,11.75.89,17.62,1.4l17.57,1.76c46.86,4.65,93.51,10.81,139.76,18.77,46.27,7.88,92.23,17.19,137.82,27.74l34.13,8.16,33.96,8.69,8.48,2.19,8.45,2.31,16.89,4.62c5.62,1.56,11.28,3.04,16.88,4.66l16.81,4.86,12.46,3.61c4.15,1.21,8.32,2.38,12.44,3.67l24.8,7.57,12.39,3.8,12.34,3.95,24.67,7.9-33.55,102.56-23.82-7.63-11.91-3.82-11.95-3.66-23.9-7.29c-3.98-1.24-7.98-2.37-11.98-3.53l-11.99-3.47-16.17-4.68c-5.39-1.56-10.81-2.98-16.22-4.47l-16.22-4.43-8.11-2.22-8.14-2.1-32.56-8.33-32.66-7.8c-43.6-10.08-87.41-18.95-131.38-26.44-43.97-7.58-88.14-13.39-132.38-17.78l-16.59-1.66c-5.53-.48-11.07-.87-16.61-1.31l-16.61-1.29c-2.77-.21-5.53-.45-8.3-.63l-8.31-.45-16.62-.91-8.31-.46c-2.77-.14-5.54-.34-8.31-.39l-33.23-1.03c-44.27-.86-88.52.06-132.61,2.86l-16.52,1.18-8.26.59c-2.75.19-5.51.37-8.25.67l-32.94,3.25c-21.89,2.64-43.79,5.26-65.52,8.87l-16.32,2.54-16.23,3.01-16.23,3.01c-2.7.53-5.42.94-8.1,1.56l-8.06,1.75-16.11,3.49-8.06,1.74-4.03.87c-1.34.31-2.67.66-4,.98l-31.97,7.94c-42.43,11.26-84.21,24.64-125.08,40.22l-24.42,9.55c-2.05.76-4.02,1.69-6.04,2.54l-6.01,2.6-12.02,5.19-12.03,5.18c-3.99,1.77-7.89,3.71-11.84,5.56l-23.64,11.19Z"/>
      <path class="cls-2" d="M-362.67,309.67l-49.14-99.43,27.34-12.96c1.53-.71,3.05-1.44,4.57-2.16,2.76-1.32,5.62-2.68,8.47-3.94l32.96-14.22c.75-.31,1.48-.63,2.2-.95,1.45-.63,2.95-1.29,4.48-1.86l26.68-10.44c43.94-16.75,89.83-31.51,136.41-43.86l36.23-9c.94-.24,1.88-.47,2.83-.69l39.26-8.49c1.9-.43,3.84-.78,5.72-1.12,1.02-.18,2.04-.37,3.07-.57l35.07-6.5,17.64-2.76c23.91-3.97,48.71-6.94,70.6-9.56l35.42-3.5c2.61-.29,5.27-.47,7.84-.65l27.64-1.98c46.65-2.96,94.43-3.99,142.02-3.06l35.41,1.1c2.13.04,4.28.17,6.37.28.83.05,1.67.09,2.5.14l35.33,1.94c1.95.13,3.89.28,5.82.43,1.01.08,2.01.16,3.02.23l17.63,1.37c2.06.16,4.11.32,6.17.48,3.82.29,7.65.59,11.46.92l17.59,1.76c48.16,4.78,95.22,11.1,139.87,18.78,45.12,7.68,91.51,17.02,137.9,27.75l34.14,8.16,42.47,10.89,25.36,6.93c2,.55,4,1.1,5.99,1.64,3.58.97,7.28,1.98,10.91,3.02l32.31,9.35c3.1.89,6.3,1.82,9.44,2.8l37.19,11.37,38.46,12.32-34.48,105.41-37.15-11.9-35.83-10.95c-2.98-.93-6.03-1.81-8.97-2.66l-31.15-9.02c-3.46-1-7-1.96-10.42-2.89-1.93-.52-3.86-1.05-5.78-1.58l-24.33-6.65-8.12-2.09-32.55-8.33-32.63-7.8c-44.19-10.22-88.37-19.11-131.28-26.42-42.13-7.26-86.63-13.24-132.27-17.77l-16.59-1.66c-3.52-.3-7.06-.58-10.6-.85-1.99-.15-3.98-.3-5.98-.46l-16.6-1.29c-.98-.07-1.96-.15-2.94-.23-1.78-.14-3.56-.28-5.34-.4l-33.21-1.82c-.78-.04-1.56-.08-2.34-.13-1.94-.11-3.95-.22-5.91-.26l-33.25-1.03c-44.42-.86-88.99.1-132.47,2.86l-25.81,1.84c-2.35.16-4.78.33-7.15.6l-34,3.38c-21.16,2.55-43.04,5.18-64.38,8.74l-16.34,2.54-32.41,6.01c-.96.19-1.93.36-2.9.54-1.7.31-3.45.62-5.14,1.01l-36.28,7.84c-.84.19-1.69.41-2.54.62l-33.38,8.29c-42.68,11.33-84.71,24.84-124.9,40.16l-24.41,9.54c-1.35.5-2.67,1.08-3.96,1.64-.68.3-1.36.59-2.04.88l-30.05,12.96c-2.53,1.12-5.09,2.34-7.56,3.52-1.41.67-2.82,1.35-4.24,2.01l-24.97,11.82ZM-407.77,211.64l46.48,94.05,22.31-10.56c1.42-.66,2.82-1.33,4.22-2,2.49-1.19,5.07-2.42,7.66-3.57l30.07-12.97c.68-.29,1.35-.58,2.01-.87,1.32-.58,2.69-1.18,4.1-1.7l24.39-9.54c40.3-15.36,82.43-28.91,125.24-40.27l33.4-8.29c.87-.22,1.74-.44,2.62-.64l36.28-7.84c1.74-.4,3.53-.72,5.26-1.03.96-.17,1.92-.35,2.87-.53l32.47-6.02,16.37-2.55c21.39-3.56,43.3-6.2,64.5-8.75l1.07-.13,32.97-3.26c2.41-.27,4.87-.44,7.25-.61l25.82-1.84c43.57-2.76,88.23-3.72,132.75-2.86l33.25,1.03c2,.04,4.04.15,6.01.27.78.04,1.55.09,2.33.13l33.24,1.82c1.81.12,3.61.26,5.4.4.98.08,1.96.16,2.93.23l16.61,1.29c1.99.16,3.98.31,5.97.46,3.55.27,7.1.54,10.65.85l16.61,1.67c45.71,4.54,90.29,10.52,132.48,17.79,42.97,7.32,87.21,16.22,131.46,26.46l32.67,7.81,40.72,10.44,24.36,6.66c1.93.53,3.85,1.06,5.77,1.58,3.43.93,6.98,1.89,10.46,2.9l31.15,9.02c2.96.85,6.02,1.74,9.02,2.67l35.84,10.96,34.32,10.99,32.62-99.71-35.57-11.39-37.17-11.37c-3.11-.97-6.3-1.89-9.38-2.78l-32.31-9.35c-3.6-1.04-7.29-2.04-10.86-3.01-2-.54-4-1.09-6-1.64l-25.34-6.92-8.46-2.19-33.96-8.69-34.1-8.15c-46.32-10.71-92.66-20.04-137.72-27.72-44.58-7.67-91.57-13.99-139.66-18.76l-17.57-1.76c-3.79-.33-7.6-.62-11.42-.92-2.06-.16-4.11-.32-6.17-.48l-17.62-1.37c-1.01-.08-2.02-.16-3.03-.24-1.92-.15-3.84-.3-5.76-.43l-35.31-1.93c-.83-.04-1.67-.09-2.51-.14-2.06-.12-4.19-.24-6.28-.28l-35.41-1.1c-47.49-.93-95.18.1-141.74,3.06l-27.63,1.98c-2.54.18-5.17.37-7.74.65l-35.41,3.5c-21.82,2.61-46.59,5.58-70.45,9.54l-17.61,2.75-35.01,6.49c-1.02.2-2.06.39-3.09.57-1.85.33-3.75.68-5.6,1.1l-39.26,8.49c-.91.21-1.83.44-2.75.67l-36.21,8.99c-46.45,12.32-92.25,27.04-136.08,43.76l-26.69,10.44c-1.47.55-2.94,1.19-4.35,1.81-.74.32-1.48.65-2.23.96l-32.93,14.21c-2.8,1.24-5.64,2.59-8.39,3.9-1.53.73-3.05,1.45-4.58,2.17l-24.58,11.65Z"/>
    </g>
    <g class="cls-5">
      <path class="cls-1" d="M-374.59,283.81l-23.94-48.36,25.38-12.03c4.24-1.99,8.45-4.04,12.71-5.98l12.89-5.56c47.08-20.62,95.43-38.2,144.58-52.89,49.17-14.65,99.17-26.26,149.57-35.28,100.84-17.98,203.3-25.28,305.41-23.33,102.1,2.08,203.71,13.37,303.81,31.47,50.06,9.06,99.76,19.84,149.05,32.08,49.3,12.22,98.14,26.06,146.59,41.01,4.09,1.26,8.2,2.47,12.28,3.78l12.23,3.92,24.46,7.83-16.79,51.28-24.03-7.7-12.02-3.85c-4.01-1.28-8.04-2.47-12.05-3.71-47.57-14.68-95.46-28.25-143.7-40.21-48.24-11.98-96.8-22.51-145.62-31.35-97.63-17.65-196.4-28.6-295.29-30.62-98.81-1.89-197.76,5.19-294.81,22.49-48.51,8.68-96.55,19.83-143.69,33.88-47.13,14.09-93.39,30.92-138.35,50.61l-12.31,5.31c-4.06,1.86-8.08,3.81-12.12,5.71l-24.22,11.47Z"/>
      <path class="cls-2" d="M-374.94,284.8l-24.6-49.7,26.07-12.36c1.49-.7,2.98-1.41,4.46-2.11,2.7-1.28,5.49-2.61,8.26-3.87l12.9-5.57c46.23-20.24,94.9-38.05,144.67-52.92,47.5-14.16,97.85-26.03,149.66-35.3,98.07-17.49,200.87-25.35,305.55-23.34,97.09,1.98,199.35,12.58,303.93,31.48,48.62,8.8,98.78,19.6,149.09,32.09,46.95,11.64,94.91,25.06,146.62,41.02,1.44.44,2.88.88,4.32,1.32,2.66.81,5.32,1.62,7.97,2.46l37.41,11.98-17.25,52.7-36.76-11.77c-2.59-.83-5.19-1.62-7.79-2.41-1.42-.43-2.84-.86-4.26-1.3-50.73-15.66-97.72-28.81-143.66-40.2-49.16-12.21-98.14-22.75-145.58-31.33-101.71-18.39-201.01-28.69-295.17-30.61-101.02-1.94-200.17,5.63-294.66,22.48-49.77,8.9-98.08,20.3-143.61,33.86-47.59,14.23-94.11,31.25-138.27,50.58l-12.32,5.31c-2.59,1.18-5.21,2.43-7.75,3.64-1.45.69-2.9,1.38-4.35,2.06l-24.89,11.79ZM-397.52,235.8l23.27,47.01,23.56-11.16c1.45-.68,2.9-1.37,4.34-2.06,2.55-1.21,5.18-2.46,7.79-3.66l12.33-5.31c44.2-19.36,90.78-36.4,138.43-50.64,45.58-13.58,93.96-24.99,143.78-33.9,94.58-16.87,193.81-24.44,294.95-22.51,94.23,1.92,193.62,12.23,295.41,30.63,47.47,8.59,96.48,19.14,145.67,31.36,45.97,11.4,92.99,24.55,143.74,40.22,1.42.44,2.83.87,4.25,1.3,2.61.79,5.22,1.58,7.81,2.42l35.34,11.32,16.32-49.85-35.97-11.52c-2.64-.84-5.29-1.65-7.95-2.46-1.44-.44-2.88-.88-4.32-1.32-51.69-15.96-99.62-29.37-146.54-41-50.28-12.49-100.41-23.28-149-32.07-104.51-18.9-206.68-29.48-303.69-31.46-104.57-2-207.28,5.84-305.26,23.32-51.75,9.26-102.05,21.12-149.49,35.26-49.7,14.86-98.32,32.64-144.5,52.86l-12.89,5.56c-2.74,1.25-5.53,2.58-8.22,3.86-1.49.71-2.97,1.41-4.46,2.11l-24.69,11.7Z"/>
    </g>
  </g>
  <polyline class="cls-3" points="0 168.95 112.62 104.36 227.36 153.3 339.35 104.36 437.01 168.95 520 126.45"/>
  <polyline class="cls-4" points="35.68 163.01 149.75 101.01 263.34 152.55 376.42 106.18 472.58 172.97 556.52 132.38"/>
  <polyline class="cls-4" points="66.59 162.3 180.83 100.61 294.28 152.46 407.48 106.4 503.46 173.45 587.51 133.08"/>
</svg>