<?xml version="1.0" encoding="UTF-8"?>
<svg id="_7A" data-name="7A" xmlns="http://www.w3.org/2000/svg" viewBox="0 0 500 500">
  <defs>
    <style>
      .cls-1 {
        fill: #fff;
        opacity: .8;
      }

      .cls-1, .cls-2, .cls-3, .cls-4, .cls-5, .cls-6, .cls-7, .cls-8 {
        stroke-width: 0px;
      }

      .cls-2 {
        fill: #e29820;
      }

      .cls-9 {
        fill: none;
        stroke: #db853e;
        stroke-miterlimit: 10;
        stroke-width: 2.5px;
      }

      .cls-3 {
        fill: #a68164;
      }

      .cls-4 {
        fill: #bac4cd;
      }

      .cls-5 {
        fill: #e2e2e2;
      }

      .cls-6 {
        fill: #2f7bad;
      }

      .cls-7 {
        fill: #9fbc50;
      }

      .cls-8 {
        fill: #ebecf1;
      }
    </style>
  </defs>
  <g>
    <rect class="cls-1" x="315.39" y="142.93" width="15.17" height="214.15" transform="translate(572.98 -72.98) rotate(90)"/>
    <g>
      <g>
        <path class="cls-9" d="M489.55,219.2c.17.5-.17,1.07-.47,1.33-.35.34-.84.65-1.34.94-1.04.57-2.19,1.05-3.36,1.48"/>
        <path class="cls-9" d="M493.45,220.83c-.07.43-.18.91-.45,1.35-.11.23-.27.43-.41.64-.18.23-.4.46-.61.69-.81.77-1.52,1.19-2.22,1.6-1.38.76-2.68,1.28-3.97,1.75"/>
        <g>
          <g>
            <path class="cls-5" d="M394.79,243.37l-.51-4.98c1.66-.57,2.95-1.28,4.11-2.02,3.28-2.07,5.57-4.41,12.16-5.15,4.21-.48,6.88.14,9.21.98-1.58,1.06-2.94,2.2-4.7,3.18-1.23,0-2.61.13-4.22.49-2.33.51-4.11,1.16-5.59,1.86-2.46,1.16-4.08,2.49-5.93,3.64-1.28.79-2.68,1.5-4.54,2.01Z"/>
            <path class="cls-5" d="M420.68,236.57c1.36-.87,2.9-1.67,5-2.25,1.87.44,4.09.62,7.07.23,1.28-.17,2.39-.4,3.38-.69,2.28-.65,3.9-1.58,5.32-2.58,3.16-2.21,5.37-4.76,11.8-5.8,4.15-.68,6.82-.22,9.2.49-1.65,1.26-3.05,2.61-5.02,3.75-1.02.02-2.15.12-3.42.33-2.97.48-5.04,1.26-6.72,2.2-2,1.1-3.45,2.41-5.18,3.62-2.05,1.43-4.5,2.7-8.74,3.27-6.22.82-9.24-1.19-12.69-2.57Z"/>
            <path class="cls-5" d="M462.88,230.41c1.37-1.13,2.88-2.14,4.99-2.84,2.03.39,4.42.48,7.68-.29.86-.21,1.64-.44,2.35-.71h0c1.37-.51,2.48-1.11,3.41-1.77.47-.32.89-.67,1.28-1.02.09-.08.21-.18.26-.26l.14-.22.25-.45c.54-.99.91-2.04,1.37-2.98l1.9,4.61c-.64,1.08-1.16,2.22-1.87,3.25l-.18.25c-.07.09-.1.16-.25.27-.25.2-.51.4-.78.6-.55.39-1.14.77-1.81,1.12-1.34.71-2.95,1.33-4.99,1.82-6.87,1.59-9.84-.33-13.75-1.38Z"/>
            <path class="cls-5" d="M457.43,229.72c1.97-1.14,3.37-2.49,5.02-3.75,1.81.54,3.44,1.21,5.42,1.6-2.11.71-3.61,1.72-4.99,2.84-1.56-.43-3.27-.74-5.45-.69Z"/>
            <path class="cls-5" d="M415.07,235.38c1.76-.98,3.12-2.12,4.7-3.18,1.96.72,3.7,1.6,5.92,2.12-2.1.58-3.64,1.37-5,2.25-1.64-.66-3.38-1.18-5.62-1.19Z"/>
            <path class="cls-7" d="M484.65,227.72c.71-1.03,1.23-2.16,1.87-3.25l1.5,3.63c-1.3.18-2.37-.03-3.37-.39Z"/>
            <path class="cls-7" d="M442.11,235.88c1.73-1.2,3.17-2.51,5.18-3.62,1.02,0,2.16-.09,3.43-.29,2.98-.47,5.05-1.28,6.71-2.24,1.97-1.14,3.37-2.49,5.02-3.75,1.96-1.51,4.29-2.88,8.35-3.76,3.17-.7,5.43-.72,7.39-.49.98.11,1.88.29,2.77.48l1.34.27c.26.03.34.12.51.18l.45.19-.25.45-.14.22c-.05.08-.18.18-.26.26-.39.35-.81.7-1.28,1.02-.93.66-2.05,1.25-3.41,1.77h0c-1.64-.13-3.53-.13-5.89.13-1.63.18-2.98.48-4.15.87-2.11.71-3.61,1.72-4.99,2.84-2.89,2.34-5.23,5.15-11.45,6.13-4.24.66-6.95.12-9.32-.67Z"/>
            <path class="cls-7" d="M399.33,241.37c1.85-1.15,3.47-2.48,5.93-3.64.76,0,1.57-.05,2.44-.15,3.32-.37,5.55-1.2,7.36-2.2,1.76-.98,3.12-2.12,4.7-3.18,2.07-1.38,4.51-2.61,8.71-3.15,6.49-.84,9.33.98,12.98,2.22-1.42,1-3.04,1.92-5.32,2.58-1.88-.41-4.09-.59-7.07-.2-1.28.16-2.39.39-3.38.67-2.1.58-3.64,1.37-5,2.25-3.41,2.18-5.65,4.85-12.47,5.62-4.04.45-6.65-.06-8.88-.82Z"/>
            <path class="cls-7" d="M394.28,238.39l-.39-3.89c1.58.55,2.97,1.26,4.51,1.87-1.16.74-2.46,1.44-4.11,2.02Z"/>
          </g>
          <g>
            <path class="cls-5" d="M309.58,249.87l-.25-5c1.68-.49,3.01-1.12,4.21-1.8,3.38-1.9,5.79-4.12,12.41-4.52,4.23-.26,6.87.49,9.16,1.46-1.64.97-3.05,2.04-4.86,2.92-1.23-.07-2.62,0-4.24.27-2.35.39-4.17.95-5.68,1.57-2.52,1.04-4.2,2.28-6.11,3.33-1.32.73-2.75,1.36-4.64,1.77Z"/>
            <path class="cls-5" d="M335.79,244.41c1.41-.8,2.99-1.51,5.12-1.97,1.84.54,4.05.85,7.05.62,1.28-.09,2.41-.27,3.41-.49,2.32-.52,3.99-1.34,5.47-2.25,3.29-2,5.68-4.41,12.21-4.98,4.23-.37,6.88.32,9.19,1.24-1.77,1.11-3.28,2.33-5.34,3.31-1.02-.06-2.16-.05-3.44.07-3,.26-5.12.9-6.86,1.72-2.07.97-3.6,2.18-5.39,3.27-2.13,1.29-4.65,2.42-8.9,2.73-6.24.46-9.14-1.7-12.52-3.27Z"/>
            <path class="cls-5" d="M378.27,241.05c1.47-.99,3.06-1.86,5.24-2.35,1.98.6,4.34.95,7.66.62.88-.09,1.68-.21,2.42-.36h0c2.85-.59,4.76-1.62,6.43-2.75,1.37-.91,2.59-1.9,4.03-2.76l.54,4.96c-1.59.94-2.89,1.97-4.44,2.89-2.03,1.21-4.47,2.24-8.52,2.65-6.82.68-9.57-1.47-13.36-2.88Z"/>
            <path class="cls-5" d="M372.9,239.9c2.06-.98,3.57-2.2,5.34-3.31,1.77.7,3.34,1.53,5.26,2.12-2.18.48-3.77,1.35-5.24,2.35-1.51-.57-3.19-1.02-5.37-1.15Z"/>
            <path class="cls-5" d="M330.25,242.93c1.81-.88,3.23-1.95,4.86-2.92,1.92.82,3.61,1.79,5.8,2.43-2.13.46-3.71,1.17-5.12,1.97-1.6-.74-3.31-1.35-5.54-1.49Z"/>
            <path class="cls-7" d="M400.15,241.28c1.54-.92,2.85-1.95,4.44-2.89l.42,3.91c-1.93-.11-3.44-.51-4.86-1.02Z"/>
            <path class="cls-7" d="M357.2,244.95c1.79-1.09,3.32-2.3,5.39-3.27,1.02.06,2.16.06,3.44-.05,3-.25,5.13-.9,6.86-1.73,2.06-.98,3.57-2.2,5.34-3.31,2.11-1.32,4.59-2.48,8.81-2.89,6.6-.65,9.33,1.17,12.96,2.51-1.67,1.13-3.58,2.16-6.43,2.75h0c-1.59-.38-3.47-.64-5.85-.66-1.64-.01-3.03.14-4.23.4-2.18.48-3.77,1.35-5.24,2.35-3.08,2.07-5.61,4.67-11.84,5.2-4.25.36-6.91-.36-9.22-1.3Z"/>
            <path class="cls-7" d="M314.22,248.1c1.91-1.05,3.59-2.3,6.11-3.33.75.04,1.57.03,2.45-.02,3.33-.2,5.61-.91,7.47-1.82,1.81-.88,3.23-1.95,4.86-2.92,2.14-1.27,4.65-2.36,8.88-2.67,6.54-.48,9.28,1.52,12.85,2.99-1.48.91-3.15,1.73-5.47,2.25-1.85-.53-4.05-.83-7.05-.61-1.28.09-2.41.26-3.41.48-2.13.46-3.71,1.17-5.12,1.97-3.52,2-5.9,4.55-12.74,4.96-4.06.24-6.64-.4-8.83-1.27Z"/>
            <path class="cls-7" d="M309.33,244.86l-.19-3.9c1.55.63,2.91,1.41,4.41,2.1-1.2.68-2.53,1.31-4.21,1.8Z"/>
          </g>
          <g>
            <path class="cls-5" d="M221.7,242.86l4.77-1.54c.37.43.88.49,1.29.48.44-.02.86-.13,1.25-.29.14-.05.28-.11.41-.17l.6-.12c.4-.09.81-.2,1.21-.31.82-.22,1.65-.47,2.56-.67,1.84-.41,4-.62,7.18-.33,4.07.35,6.56,1.38,8.7,2.6-1.71.79-3.23,1.69-5.13,2.34-1.21-.23-2.58-.35-4.21-.32-2.37.03-4.24.24-5.87.52-1.35.23-2.53.52-3.7.77-.59.11-1.16.24-1.77.31-.3.04-.61.07-.94.08-.31.02-.71,0-.88.04-.31.04-.63.08-1,.04-.36-.02-.73-.06-1.19-.23-.41-.1-.97-.41-1.5-.79-.31-.26-.62-.57-.91-.91-.31-.39-.62-.95-.86-1.49Z"/>
            <path class="cls-5" d="M249.89,246.96c1.49-.64,3.13-1.19,5.29-1.46,1.78.7,3.96,1.21,6.97,1.23,1.29,0,2.42-.08,3.44-.23,2.35-.34,4.08-1.05,5.61-1.85,3.42-1.78,5.94-4.02,12.48-4.19,4.23-.12,6.83.72,9.09,1.77-1.83,1.01-3.41,2.15-5.52,3-1.02-.12-2.15-.17-3.44-.14-3.01.08-5.16.59-6.96,1.29-2.13.83-3.74,1.94-5.61,2.91-2.22,1.14-4.82,2.09-9.12,2.07-6.31-.05-9.05-2.49-12.24-4.4Z"/>
            <path class="cls-5" d="M292.55,246.69c1.52-.91,3.16-1.69,5.36-2.06,1.94.71,4.28,1.18,7.62,1.02.88-.04,1.69-.12,2.44-.24h0c2.87-.44,4.84-1.37,6.56-2.41,1.42-.84,2.68-1.76,4.16-2.55l.28,4.98c-1.63.86-2.99,1.81-4.58,2.65-2.09,1.1-4.58,2.01-8.65,2.2-6.85.32-9.49-1.97-13.19-3.6Z"/>
            <path class="cls-5" d="M287.25,245.24c2.11-.86,3.69-1.99,5.52-3,1.72.79,3.24,1.71,5.14,2.4-2.2.36-3.84,1.15-5.36,2.06-1.48-.65-3.13-1.2-5.29-1.45Z"/>
            <path class="cls-5" d="M244.55,244.84c1.9-.64,3.42-1.55,5.13-2.34,1.8,1.02,3.38,2.15,5.5,3-2.16.26-3.8.81-5.29,1.46-1.52-.91-3.15-1.7-5.34-2.12Z"/>
            <path class="cls-7" d="M314.39,248.09c1.59-.84,2.94-1.8,4.58-2.65l.22,3.92c-1.92-.21-3.41-.69-4.8-1.27Z"/>
            <path class="cls-7" d="M271.25,249.3c1.87-.96,3.48-2.07,5.61-2.91,1.02.13,2.15.19,3.44.17,3.01-.07,5.17-.59,6.95-1.32,2.11-.86,3.69-1.99,5.52-3,2.18-1.21,4.71-2.22,8.94-2.41,6.62-.3,9.25,1.65,12.81,3.18-1.73,1.04-3.69,1.97-6.56,2.41h0c-1.57-.46-3.43-.82-5.81-.96-1.64-.1-3.03-.02-4.24.17-2.2.36-3.84,1.15-5.36,2.06-3.2,1.9-5.87,4.35-12.15,4.5-4.28.09-6.9-.8-9.15-1.89Z"/>
            <path class="cls-7" d="M227.17,246.24c.18-.05.57-.01.88-.04.32-.01.64-.03.94-.08.61-.07,1.19-.19,1.77-.31,1.17-.25,2.35-.54,3.7-.77.74.2,1.54.35,2.42.46,3.34.41,5.71-.01,7.66-.67,1.9-.64,3.42-1.55,5.13-2.34,2.24-1.03,4.8-1.87,9-1.81,6.49.07,9.07,2.25,12.52,3.96-1.54.8-3.26,1.5-5.61,1.85-1.81-.67-3.97-1.13-6.98-1.17-1.29-.02-2.42.04-3.44.17-2.16.26-3.8.81-5.29,1.46-1.86.81-3.47,1.77-5.5,2.46-2.03.68-4.47,1.13-8.07.69-2.14-.26-3.89-.75-5.39-1.41-.75-.33-1.43-.7-2.08-1.12-.32-.21-.62-.42-.93-.66l-.44-.35c-.18-.14-.23-.23-.3-.33Z"/>
            <path class="cls-7" d="M226.47,241.32l1.35-.44c.12-.03.22-.08.3-.14.1-.07.33-.2.45-.32.08-.07.11-.12.21-.21.11-.09.21-.19.3-.29.02-.01-.11.13-.14.2-.12.39-.09.9.07,1.39-.4.15-.81.27-1.25.29-.42,0-.93-.05-1.29-.48Z"/>
          </g>
        </g>
      </g>
      <g>
        <path class="cls-9" d="M493.55,287.8c.05-.74-.38-1.44-.96-2-.56-.54-1.15-.94-1.74-1.3-1.18-.71-2.38-1.25-3.59-1.76"/>
        <path class="cls-9" d="M489.89,289.4c.03-.13.01-.27-.05-.39-.02-.06-.07-.11-.11-.17-.04-.04-.06-.05-.08-.08-.16-.16-.53-.44-.96-.69-.86-.52-1.94-1.02-3.04-1.48"/>
        <g>
          <g>
            <path class="cls-5" d="M394.71,269.31l.78-4.95c1.79-.13,3.26-.47,4.61-.88,3.8-1.13,6.72-2.78,13.48-1.65,4.32.73,6.79,2.1,8.85,3.59-1.87.55-3.54,1.25-5.56,1.68-1.21-.36-2.62-.62-4.3-.72-2.44-.16-4.38-.03-6.03.25-2.75.45-4.7,1.3-6.83,1.93-1.47.43-3.03.75-5,.76Z"/>
            <path class="cls-5" d="M422.05,269.87c1.59-.44,3.34-.74,5.57-.65,1.7.98,3.81,1.84,6.84,2.41,1.3.24,2.46.38,3.51.42,2.43.12,4.3-.22,6.02-.68,3.81-1.01,6.87-2.67,13.54-1.23,4.31.94,6.72,2.45,8.7,4.08-2.1.47-3.97,1.15-6.28,1.44-.98-.37-2.1-.71-3.39-.99-3.02-.66-5.3-.66-7.25-.38-2.31.34-4.15,1.07-6.21,1.63-2.45.66-5.21,1.06-9.47.26-6.25-1.17-8.59-3.97-11.57-6.31Z"/>
            <path class="cls-5" d="M464.82,278.45c1.74-.46,3.57-.76,5.85-.46,1.71,1.25,3.86,2.4,7.13,3.35.87.26,1.67.46,2.42.61h0c1.45.3,2.73.43,3.9.47h.44s.22,0,.22,0l.13-.03.52-.14c.34-.1.68-.22,1.01-.35,1.09-.39,2.16-.87,3.35-1.1l-2.09,4.53c-1.17.3-2.22.83-3.32,1.21-.36.13-.73.24-1.11.32l-.14.03h-.24s-.48-.02-.48-.02c-.32-.02-.66-.04-1.01-.08-1.39-.14-2.98-.45-4.91-1.02-6.52-1.87-8.46-4.74-11.67-7.34Z"/>
            <path class="cls-5" d="M459.95,275.66c2.32-.29,4.18-.97,6.28-1.44,1.51,1.24,2.77,2.55,4.44,3.77-2.28-.3-4.11,0-5.85.46-1.28-1.03-2.78-2-4.87-2.79Z"/>
            <path class="cls-5" d="M416.87,267.1c2.01-.43,3.68-1.13,5.56-1.68,1.73,1.26,3.18,2.62,5.2,3.79-2.23-.08-3.98.22-5.57.65-1.42-1.11-2.98-2.11-5.18-2.77Z"/>
            <path class="cls-2" d="M484.39,286.55c1.1-.38,2.15-.91,3.32-1.21l-1.65,3.57c-.71-.67-1.22-1.48-1.67-2.36Z"/>
            <path class="cls-2" d="M443.1,275.92c2.06-.55,3.9-1.29,6.21-1.63.99.35,2.11.68,3.4.95,3.02.64,5.29.67,7.24.42,2.32-.29,4.18-.97,6.28-1.44,2.5-.55,5.34-.83,9.66.35,3.38.92,5.58,2.15,7.27,3.48.85.67,1.57,1.36,2.25,2.08.21.19.22.31.32.47l.23.44.47.88c-.33.13-.67.24-1.01.35l-.52.14-.13.03h-.22s-.44,0-.44,0c-1.17-.04-2.45-.17-3.9-.47h0c-1.35-.98-3.04-1.96-5.32-2.84-1.58-.61-2.97-.96-4.23-1.12-2.28-.3-4.11,0-5.85.46-3.66.97-6.88,2.64-13.08,1.32-4.23-.89-6.63-2.31-8.65-3.85Z"/>
            <path class="cls-2" d="M399.71,268.55c2.13-.62,4.08-1.47,6.83-1.93.75.2,1.56.38,2.45.53,3.38.56,5.81.39,7.88-.05,2.01-.43,3.68-1.13,5.56-1.68,2.45-.71,5.24-1.16,9.55-.36,6.68,1.23,8.88,3.92,12.02,6.31-1.72.46-3.59.8-6.02.68-1.69-1-3.8-1.87-6.84-2.43-1.3-.24-2.46-.36-3.52-.4-2.23-.08-3.98.22-5.57.65-3.99,1.09-6.93,2.99-13.82,1.85-4.09-.68-6.52-1.85-8.52-3.17Z"/>
            <path class="cls-2" d="M395.49,264.36l.6-3.86c1.44.94,2.64,1.99,4.01,2.98-1.35.41-2.82.75-4.61.88Z"/>
          </g>
          <g>
            <path class="cls-5" d="M308.29,257.91l.53-4.98c1.78-.22,3.23-.63,4.56-1.1,3.74-1.31,6.57-3.11,13.38-2.31,4.35.51,6.88,1.75,9.02,3.14-1.84.64-3.47,1.43-5.46,1.96-1.23-.3-2.65-.49-4.33-.51-2.45-.04-4.38.19-6.01.54-2.72.59-4.63,1.53-6.72,2.26-1.45.5-2.99.9-4.95,1Z"/>
            <path class="cls-5" d="M335.63,257.11c1.57-.52,3.3-.91,5.53-.94,1.75.89,3.9,1.63,6.97,2.03,1.31.17,2.47.24,3.53.22,2.43-.02,4.28-.47,5.97-1.03,3.74-1.24,6.67-3.08,13.38-2.13,4.34.62,6.84,1.92,8.94,3.36-2.04.66-3.84,1.49-6.12,1.96-1.01-.3-2.15-.55-3.46-.73-3.06-.43-5.33-.29-7.26.12-2.29.49-4.08,1.34-6.1,2.02-2.41.81-5.15,1.37-9.46.81-6.32-.82-8.81-3.5-11.91-5.69Z"/>
            <path class="cls-5" d="M378.9,262.96c1.7-.62,3.49-1.08,5.78-1.01,1.83,1.07,4.09,1.99,7.47,2.51.9.14,1.72.23,2.49.27h0c2.97.16,5.14-.33,7.1-.98,1.61-.52,3.07-1.14,4.74-1.58l-.8,4.92c-1.82.48-3.38,1.12-5.15,1.6-2.32.63-4.99.99-9.09.36-6.9-1.06-9.11-3.79-12.55-6.08Z"/>
            <path class="cls-5" d="M373.82,260.58c2.29-.47,4.09-1.3,6.12-1.96,1.6,1.1,2.97,2.29,4.75,3.33-2.29-.07-4.09.4-5.78,1.01-1.37-.92-2.94-1.75-5.09-2.38Z"/>
            <path class="cls-5" d="M330.32,254.61c1.99-.53,3.62-1.32,5.46-1.96,1.79,1.17,3.31,2.45,5.38,3.52-2.23.03-3.97.43-5.53.94-1.47-1.04-3.08-1.96-5.31-2.5Z"/>
            <path class="cls-2" d="M400.54,268.68c1.76-.48,3.32-1.12,5.15-1.6l-.63,3.88c-1.86-.62-3.25-1.41-4.51-2.28Z"/>
            <path class="cls-2" d="M357,261.99c2.03-.68,3.82-1.53,6.1-2.02,1.01.29,2.15.53,3.46.72,3.06.43,5.33.29,7.26-.11,2.29-.47,4.09-1.3,6.12-1.96,2.43-.78,5.19-1.31,9.53-.65,6.78,1.04,9.03,3.52,12.29,5.77-1.96.65-4.12,1.14-7.1.98h0c-1.48-.77-3.29-1.5-5.65-2.12-1.63-.43-3.05-.62-4.31-.66-2.29-.07-4.09.4-5.78,1.01-3.57,1.28-6.68,3.2-12.99,2.32-4.31-.6-6.81-1.88-8.91-3.29Z"/>
            <path class="cls-2" d="M313.25,256.9c2.1-.73,4-1.67,6.72-2.26.76.17,1.58.3,2.48.4,3.4.39,5.82.11,7.87-.44,1.99-.53,3.62-1.32,5.46-1.96,2.41-.83,5.16-1.42,9.51-.87,6.72.86,9.07,3.41,12.34,5.61-1.68.56-3.53,1.01-5.97,1.03-1.75-.9-3.9-1.65-6.96-2.04-1.31-.17-2.48-.23-3.53-.21-2.23.03-3.97.43-5.53.94-3.93,1.29-6.77,3.34-13.71,2.54-4.12-.47-6.6-1.53-8.67-2.75Z"/>
            <path class="cls-2" d="M308.82,252.92l.41-3.88c1.48.87,2.74,1.86,4.15,2.78-1.33.47-2.78.89-4.56,1.1Z"/>
          </g>
          <g>
            <path class="cls-5" d="M225.59,251.77l-1.08-.3c-.07-.52.19-1.08.43-1.56.13-.25.27-.49.4-.71.14-.23.28-.46.42-.67.2-.31.4-.62.6-.9l.32-.44c.19-.16.41-.33.62-.5.85-.65,1.76-1.25,2.76-1.75,2.03-1.02,4.53-1.75,8.09-1.87,4.54-.13,7.24.85,9.53,2-1.78.83-3.33,1.79-5.24,2.57-1.26-.14-2.7-.14-4.38.09-2.43.33-4.31.91-5.82,1.6-1.25.58-2.25,1.24-3.08,1.93-.41.34-.79.71-1.07,1.05-.13.31-.27.61-.35.89-.04.2-.12.38-.12.55v.24s.01.07.03.1l.04.04s0-.02-.03-.06l-.07-.12c-.17-.31-.43-.65-.64-.92-.15-.24-.34-.47-.57-.68-.2-.19-.28-.3-.49-.42-.16-.09-.17-.12-.31-.15Z"/>
            <path class="cls-5" d="M248.01,249.52c1.5-.68,3.19-1.23,5.41-1.47,1.83.73,4.03,1.29,7.11,1.45,1.32.07,2.48.05,3.53-.04,2.42-.2,4.24-.77,5.88-1.44,3.65-1.48,6.48-3.51,13.25-2.95,4.38.37,6.95,1.54,9.13,2.86-2,.76-3.76,1.69-6.01,2.29-1.02-.24-2.18-.43-3.49-.53-3.08-.26-5.34.03-7.24.56-2.25.63-3.98,1.59-5.95,2.41-2.34.97-5.03,1.71-9.33,1.48-6.31-.32-8.99-2.74-12.29-4.6Z"/>
            <path class="cls-5" d="M291.52,252.31c1.66-.7,3.43-1.26,5.72-1.32,1.88.97,4.19,1.77,7.59,2.12.9.09,1.73.14,2.5.14h0c2.98.01,5.12-.58,7.04-1.33,1.58-.6,3.01-1.29,4.66-1.82l-.56,4.95c-1.8.57-3.32,1.28-5.06,1.85-2.29.74-4.94,1.24-9.06.81-6.94-.71-9.28-3.32-12.84-5.42Z"/>
            <path class="cls-5" d="M286.31,250.21c2.26-.6,4.01-1.53,6.01-2.29,1.66,1.01,3.09,2.13,4.92,3.07-2.29.05-4.06.61-5.72,1.32-1.42-.84-3.03-1.59-5.21-2.1Z"/>
            <path class="cls-5" d="M242.45,247.63c1.91-.78,3.46-1.73,5.24-2.57,1.92.98,3.56,2.11,5.73,2.98-2.22.24-3.91.79-5.41,1.47-1.57-.88-3.27-1.62-5.56-1.89Z"/>
            <path class="cls-2" d="M313.42,256.92c1.74-.57,3.26-1.28,5.06-1.85l-.44,3.91c-1.89-.53-3.31-1.25-4.62-2.05Z"/>
            <path class="cls-2" d="M269.63,252.64c1.97-.81,3.7-1.78,5.95-2.41,1.02.23,2.18.4,3.49.51,3.08.24,5.33-.02,7.24-.53,2.26-.6,4.01-1.53,6.01-2.29,2.38-.91,5.12-1.58,9.49-1.14,6.83.69,9.2,3.06,12.57,5.15-1.92.75-4.06,1.34-7.04,1.33h0c-1.52-.7-3.36-1.34-5.75-1.83-1.65-.34-3.08-.46-4.34-.44-2.29.05-4.06.61-5.72,1.32-3.49,1.47-6.48,3.56-12.82,3.05-4.32-.34-6.88-1.45-9.07-2.72Z"/>
            <path class="cls-2" d="M227.76,253.19c.07-.29.22-.58.35-.89.28-.34.67-.7,1.07-1.05.83-.69,1.83-1.35,3.08-1.93.77,0,1.59-.03,2.49-.09,3.39-.22,5.74-.8,7.71-1.6,1.91-.78,3.46-1.73,5.24-2.57,2.33-1.08,5.06-1.94,9.48-1.74,6.83.32,9.36,2.72,12.77,4.68-1.64.67-3.46,1.25-5.88,1.44-1.81-.77-4.01-1.36-7.1-1.5-1.32-.06-2.49-.02-3.54.09-2.22.24-3.91.79-5.41,1.47-1.88.84-3.46,1.86-5.4,2.69-1.94.83-4.27,1.44-7.55,1.65-1.94.13-3.47.11-4.72,0-.63-.06-1.18-.13-1.67-.22-.15-.02-.22-.05-.28-.09l-.21-.11c-.14-.08-.3-.16-.41-.24Z"/>
            <path class="cls-2" d="M224.51,251.47l-3.76-1.05c.22-.39.47-.75.74-1.05.26-.26.53-.44.79-.62.28-.2.5-.23.74-.32.23-.07.47-.15.66-.15.82-.07,1.48.07,2.08.25-.14.21-.28.44-.42.67-.14.22-.27.46-.4.71-.24.48-.5,1.03-.43,1.56Z"/>
          </g>
        </g>
      </g>
      <g>
        <path class="cls-9" d="M476.56,181.83c.25.46,0,1.08-.24,1.39-.29.39-.72.78-1.16,1.16-.93.74-1.98,1.4-3.07,2.02"/>
        <path class="cls-9" d="M480.68,182.78c0,.43-.03.93-.21,1.41-.07.24-.19.47-.29.7-.14.25-.31.53-.48.78-.67.89-1.3,1.43-1.92,1.95-1.23.98-2.42,1.71-3.62,2.4"/>
        <g>
          <g>
            <path class="cls-5" d="M387.25,221.67l-1.34-4.83c1.53-.84,2.69-1.76,3.71-2.68,2.88-2.59,4.75-5.29,11.11-7.13,4.07-1.18,6.8-1.03,9.25-.59-1.38,1.31-2.52,2.66-4.1,3.92-1.22.2-2.55.57-4.07,1.19-2.2.9-3.86,1.84-5.2,2.78-2.23,1.56-3.6,3.14-5.23,4.59-1.13,1-2.39,1.93-4.14,2.74Z"/>
            <path class="cls-5" d="M411.62,210.59c1.19-1.09,2.58-2.13,4.55-3.06,1.92.11,4.13-.08,7.01-.97,1.23-.38,2.29-.8,3.21-1.25,2.14-1.03,3.58-2.22,4.81-3.44,2.74-2.71,4.49-5.6,10.65-7.71,3.98-1.38,6.69-1.37,9.15-1.08-1.41,1.53-2.56,3.09-4.31,4.55-1,.2-2.1.49-3.32.91-2.84.98-4.75,2.1-6.25,3.31-1.79,1.43-2.99,2.96-4.49,4.44-1.78,1.75-3.98,3.43-8.06,4.7-5.99,1.86-9.31.39-12.94-.39Z"/>
            <path class="cls-5" d="M452.17,197.39c1.16-1.34,2.47-2.59,4.44-3.64,2.06.04,4.44-.27,7.52-1.58.82-.35,1.54-.71,2.2-1.09h0c1.26-.74,2.26-1.51,3.07-2.32.41-.4.76-.81,1.09-1.22.07-.1.18-.22.22-.3l.1-.24.17-.49c.36-1.06.56-2.16.85-3.17l2.65,4.22c-.45,1.18-.77,2.38-1.3,3.51l-.14.28c-.05.1-.07.17-.2.31-.21.24-.43.48-.67.72-.47.48-1,.95-1.6,1.41-1.2.93-2.68,1.81-4.61,2.64-6.5,2.73-9.75,1.34-13.79.97Z"/>
            <path class="cls-5" d="M446.69,197.63c1.75-1.46,2.9-3.02,4.31-4.55,1.88.22,3.6.61,5.61.66-1.96,1.05-3.27,2.3-4.44,3.64-1.61-.16-3.35-.17-5.49.24Z"/>
            <path class="cls-5" d="M405.88,210.37c1.57-1.26,2.72-2.61,4.1-3.92,2.05.37,3.91.95,6.19,1.09-1.97.93-3.36,1.97-4.55,3.06-1.73-.37-3.53-.59-5.74-.23Z"/>
            <path class="cls-6" d="M473.17,191.06c.53-1.13.84-2.34,1.3-3.51l2.09,3.33c-1.25.4-2.34.37-3.38.19Z"/>
            <path class="cls-6" d="M432.63,206.28c1.5-1.48,2.7-3.01,4.49-4.44,1.01-.18,2.11-.45,3.33-.87,2.85-.96,4.76-2.11,6.24-3.34,1.75-1.46,2.9-3.02,4.31-4.55,1.68-1.82,3.74-3.57,7.59-5.12,3-1.22,5.23-1.63,7.2-1.73.98-.05,1.9-.03,2.81,0l1.37.04c.26-.01.36.06.53.09l.47.12-.17.49-.1.24c-.04.08-.14.2-.22.3-.33.41-.68.82-1.09,1.22-.81.81-1.8,1.58-3.07,2.32h0c-1.64.15-3.5.47-5.78,1.12-1.58.45-2.86.98-3.94,1.56-1.96,1.05-3.27,2.3-4.44,3.64-2.45,2.79-4.28,5.96-10.25,7.98-4.06,1.37-6.83,1.29-9.3.91Z"/>
            <path class="cls-6" d="M391.38,218.93c1.63-1.45,3-3.03,5.23-4.59.74-.13,1.54-.31,2.38-.56,3.21-.92,5.27-2.12,6.89-3.41,1.57-1.26,2.72-2.61,4.1-3.92,1.81-1.71,4.01-3.33,8.05-4.57,6.25-1.93,9.36-.61,13.17,0-1.23,1.22-2.67,2.41-4.81,3.44-1.92-.09-4.13.11-7,1-1.23.38-2.29.79-3.22,1.23-1.97.93-3.36,1.97-4.55,3.06-2.99,2.73-4.75,5.74-11.34,7.64-3.91,1.12-6.56,1.07-8.9.69Z"/>
            <path class="cls-6" d="M385.91,216.84l-1.05-3.76c1.65.27,3.14.74,4.76,1.08-1.02.92-2.18,1.84-3.71,2.68Z"/>
          </g>
          <g>
            <path class="cls-5" d="M304.37,242.47l-1.09-4.89c1.58-.77,2.78-1.62,3.85-2.49,3.01-2.44,5.01-5.04,11.46-6.55,4.13-.97,6.85-.67,9.27-.11-1.45,1.23-2.66,2.53-4.3,3.7-1.22.14-2.58.44-4.13.98-2.25.79-3.95,1.64-5.33,2.51-2.31,1.45-3.76,2.96-5.46,4.32-1.18.94-2.48,1.81-4.27,2.53Z"/>
            <path class="cls-5" d="M329.28,232.67c1.25-1.03,2.69-1.99,4.71-2.81,1.91.22,4.13.15,7.05-.58,1.25-.31,2.33-.67,3.28-1.06,2.2-.9,3.7-2,5.01-3.14,2.91-2.53,4.85-5.31,11.2-6.97,4.1-1.08,6.83-.85,9.27-.33-1.56,1.39-2.84,2.85-4.7,4.17-1.02.11-2.13.32-3.38.65-2.91.76-4.9,1.75-6.48,2.85-1.88,1.3-3.18,2.76-4.76,4.14-1.88,1.63-4.17,3.17-8.31,4.2-6.07,1.51-9.3-.13-12.89-1.11Z"/>
            <path class="cls-5" d="M370.57,222.17c1.28-1.23,2.7-2.35,4.76-3.2,2.05.26,4.44.2,7.65-.69.85-.23,1.62-.49,2.32-.77h0c2.71-1.06,4.42-2.4,5.87-3.8,1.2-1.13,2.23-2.31,3.5-3.4l1.37,4.79c-1.41,1.19-2.52,2.43-3.88,3.59-1.8,1.54-4.03,2.97-7.95,4.05-6.61,1.82-9.68.17-13.65-.58Z"/>
            <path class="cls-5" d="M365.09,221.94c1.86-1.31,3.15-2.77,4.7-4.17,1.86.39,3.55.94,5.54,1.2-2.07.84-3.49,1.97-4.76,3.2-1.59-.31-3.32-.47-5.48-.22Z"/>
            <path class="cls-5" d="M323.56,232.14c1.63-1.18,2.85-2.47,4.3-3.7,2.03.48,3.86,1.15,6.13,1.42-2.02.82-3.46,1.78-4.71,2.81-1.71-.46-3.49-.77-5.72-.53Z"/>
            <path class="cls-6" d="M392.18,218.7c1.37-1.17,2.48-2.4,3.88-3.59l1.08,3.78c-1.92.22-3.47.08-4.96-.18Z"/>
            <path class="cls-6" d="M350.47,229.58c1.58-1.38,2.88-2.83,4.76-4.14,1.02-.11,2.14-.31,3.38-.63,2.91-.76,4.9-1.76,6.47-2.86,1.86-1.31,3.15-2.77,4.7-4.17,1.85-1.66,4.1-3.22,8.2-4.34,6.4-1.75,9.39-.43,13.2.28-1.45,1.4-3.17,2.74-5.87,3.8h0c-1.63-.1-3.53-.04-5.88.34-1.62.26-2.96.64-4.1,1.11-2.07.84-3.49,1.97-4.76,3.2-2.69,2.56-4.74,5.55-10.79,7.13-4.13,1.07-6.87.82-9.31.28Z"/>
            <path class="cls-6" d="M308.64,239.94c1.7-1.36,3.15-2.87,5.46-4.32.75-.09,1.55-.23,2.41-.44,3.25-.76,5.37-1.85,7.05-3.05,1.63-1.18,2.85-2.47,4.3-3.7,1.9-1.61,4.18-3.12,8.3-4.13,6.37-1.57,9.4-.07,13.17.77-1.31,1.14-2.82,2.24-5.01,3.14-1.91-.21-4.13-.13-7.05.59-1.25.31-2.33.66-3.28,1.05-2.02.82-3.46,1.78-4.71,2.81-3.13,2.56-5.04,5.48-11.72,7.04-3.96.92-6.61.73-8.92.24Z"/>
            <path class="cls-6" d="M303.28,237.58l-.85-3.81c1.64.36,3.1.9,4.7,1.32-1.07.87-2.27,1.72-3.85,2.49Z"/>
          </g>
          <g>
            <path class="cls-5" d="M216.56,250.42l4.44-2.33c.43.36.95.33,1.36.26.43-.09.82-.28,1.19-.49.13-.08.26-.16.38-.24l.57-.22c.38-.15.77-.33,1.14-.51.77-.36,1.55-.74,2.41-1.09,1.74-.71,3.84-1.28,7.02-1.54,4.07-.34,6.7.25,9.02,1.09-1.55,1.06-2.9,2.22-4.66,3.17-1.23-.02-2.6.1-4.21.4-2.33.43-4.14.96-5.7,1.51-1.29.46-2.41.94-3.52,1.38-.56.21-1.11.43-1.7.6-.29.09-.59.17-.91.23-.3.08-.7.11-.86.19-.3.09-.6.19-.98.21-.36.04-.73.06-1.22-.02-.42-.03-1.03-.24-1.62-.53-.35-.2-.71-.46-1.05-.75-.37-.33-.78-.83-1.1-1.32Z"/>
            <path class="cls-5" d="M245.04,249.7c1.36-.89,2.89-1.71,4.97-2.33,1.88.39,4.1.52,7.08.03,1.27-.21,2.38-.49,3.36-.8,2.26-.74,3.84-1.72,5.22-2.77,3.07-2.33,5.18-4.97,11.59-6.24,4.15-.83,6.85-.44,9.25.2-1.63,1.31-2.99,2.69-4.93,3.89-1.02.05-2.15.2-3.41.45-2.95.59-4.99,1.45-6.64,2.44-1.96,1.18-3.35,2.54-5.03,3.81-2,1.5-4.4,2.88-8.64,3.58-6.23,1.02-9.34-.93-12.81-2.27Z"/>
            <path class="cls-5" d="M287.04,242.22c1.34-1.15,2.83-2.2,4.93-2.93,2.04.37,4.42.44,7.68-.28.86-.19,1.64-.4,2.36-.64h0c2.76-.92,4.54-2.17,6.06-3.49,1.26-1.07,2.35-2.19,3.67-3.22l1.12,4.86c-1.47,1.12-2.64,2.29-4.06,3.39-1.88,1.44-4.18,2.76-8.15,3.63-6.7,1.47-9.68-.34-13.61-1.32Z"/>
            <path class="cls-5" d="M281.58,241.69c1.94-1.2,3.3-2.59,4.93-3.89,1.83.49,3.49,1.14,5.47,1.5-2.11.73-3.59,1.78-4.93,2.93-1.57-.39-3.29-.65-5.46-.53Z"/>
            <path class="cls-5" d="M239.42,248.51c1.77-.95,3.11-2.11,4.66-3.17,1.95.7,3.7,1.55,5.92,2.03-2.08.62-3.61,1.44-4.97,2.33-1.65-.64-3.39-1.15-5.62-1.19Z"/>
            <path class="cls-6" d="M308.81,239.91c1.42-1.1,2.6-2.27,4.06-3.39l.88,3.83c-1.93.12-3.47-.1-4.95-.44Z"/>
            <path class="cls-6" d="M266.49,248.39c1.68-1.27,3.08-2.63,5.03-3.81,1.02-.04,2.15-.17,3.42-.42,2.96-.58,5-1.46,6.63-2.47,1.94-1.2,3.3-2.59,4.93-3.89,1.94-1.56,4.26-2.99,8.41-3.89,6.48-1.41,9.4.07,13.16.97-1.52,1.32-3.3,2.57-6.06,3.49h0c-1.63-.19-3.52-.22-5.89.03-1.63.17-2.99.49-4.15.89-2.11.73-3.59,1.78-4.93,2.93-2.83,2.41-5.05,5.28-11.21,6.49-4.2.82-6.94.38-9.34-.32Z"/>
            <path class="cls-6" d="M222.53,252.82c.17-.08.56-.11.86-.19.32-.07.62-.14.91-.23.59-.17,1.14-.39,1.7-.6,1.11-.44,2.22-.93,3.52-1.38.76.07,1.58.09,2.47.05,3.36-.16,5.62-.98,7.44-1.95,1.77-.95,3.11-2.11,4.66-3.17,2.04-1.39,4.42-2.65,8.57-3.3,6.41-1.02,9.32.68,13.01,1.79-1.38,1.05-2.96,2.03-5.22,2.77-1.89-.35-4.11-.45-7.07.02-1.27.2-2.38.45-3.36.75-2.08.62-3.61,1.44-4.97,2.33-1.7,1.11-3.12,2.33-5.01,3.35-1.89,1.01-4.22,1.87-7.84,2.04-2.15.1-3.96-.09-5.55-.48-.8-.2-1.53-.45-2.24-.75-.35-.15-.68-.31-1.03-.49l-.49-.27c-.2-.11-.26-.19-.36-.27Z"/>
            <path class="cls-6" d="M221,248.09l1.26-.66c.12-.05.21-.12.27-.19.09-.08.29-.25.39-.39.07-.08.08-.14.17-.25.09-.11.17-.22.25-.33.01-.02-.09.14-.1.22-.06.41.06.9.3,1.36-.36.22-.76.4-1.19.49-.41.07-.92.11-1.36-.26Z"/>
          </g>
        </g>
      </g>
      <g>
        <path class="cls-9" d="M478.58,317.71c.08-.34.11-.73-.01-1.09-.1-.36-.3-.71-.54-1.07-.48-.64-1.01-1.11-1.54-1.56-1.08-.86-2.2-1.56-3.34-2.21"/>
        <path class="cls-9" d="M474.7,318.6c.05-.12.08-.26.04-.39,0-.07-.05-.12-.07-.19-.02-.03-.03-.02-.03-.04-.1-.14-.43-.47-.79-.76-.78-.62-1.77-1.25-2.79-1.83"/>
        <g>
          <g>
            <path class="cls-5" d="M385.01,288.26l1.34-4.83c1.76.07,3.23-.1,4.6-.36,3.83-.7,6.88-2.02,13.34-.14,4.13,1.2,6.37,2.83,8.2,4.55-1.89.33-3.6.84-5.62,1.05-1.14-.49-2.48-.91-4.1-1.19-2.36-.43-4.27-.51-5.91-.42-2.73.14-4.73.77-6.88,1.15-1.49.26-3.05.41-4.96.2Z"/>
            <path class="cls-5" d="M411.59,291.84c1.6-.26,3.34-.36,5.51-.03,1.54,1.17,3.49,2.25,6.38,3.15,1.24.38,2.35.65,3.37.81,2.35.39,4.22.26,5.95,0,3.83-.57,7.02-1.88,13.35.3,4.09,1.42,6.26,3.2,7.98,5.03-2.11.23-4.01.69-6.31.71-.91-.48-1.96-.94-3.19-1.36-2.87-.99-5.09-1.25-7.02-1.19-2.29.07-4.18.6-6.25.92-2.47.38-5.2.47-9.26-.8-5.95-1.85-7.9-4.89-10.52-7.55Z"/>
            <path class="cls-5" d="M452.23,305.15c1.75-.26,3.58-.35,5.76.21,1.51,1.44,3.46,2.82,6.52,4.14.81.36,1.57.65,2.28.89h0c.69.23,1.34.43,1.96.57.31.08.61.14.91.2l.22.04h.14s.27,0,.27,0c.73-.04,1.43-.17,2.12-.33,1.13-.26,2.26-.59,3.48-.67l-2.65,4.22c-1.21.16-2.3.54-3.44.79-.37.08-.75.14-1.14.18-.19.02-.39.03-.59.04h-.3c-.14-.02-.32-.06-.48-.1-1.33-.3-2.83-.79-4.63-1.58-6.1-2.6-7.63-5.66-10.44-8.6Z"/>
            <path class="cls-5" d="M447.83,301.82c2.29-.03,4.2-.49,6.31-.71,1.32,1.4,2.38,2.85,3.86,4.24-2.18-.55-4.01-.47-5.76-.21-1.12-1.17-2.46-2.3-4.4-3.32Z"/>
            <path class="cls-5" d="M406.87,288.52c2.02-.2,3.73-.71,5.62-1.05,1.53,1.45,2.78,2.95,4.61,4.34-2.17-.33-3.91-.23-5.51.03-1.25-1.26-2.65-2.43-4.72-3.32Z"/>
            <path class="cls-3" d="M469.81,315.2c1.14-.25,2.23-.63,3.44-.79l-2.09,3.33c-.62-.75-1.01-1.62-1.35-2.54Z"/>
            <path class="cls-3" d="M431.37,300.19c2.07-.32,3.96-.85,6.25-.92.92.46,1.97.91,3.2,1.32,2.86.97,5.07,1.26,7.01,1.23,2.29-.03,4.2-.49,6.31-.71,2.51-.26,5.31-.22,9.39,1.45,3.18,1.31,5.18,2.78,6.66,4.31.37.38.71.77,1.03,1.16.2.21.22.34.29.5l.19.46c.24.62.48,1.24.72,1.87-.69.16-1.39.3-2.12.33h-.27s-.14,0-.14,0l-.22-.04c-.3-.06-.6-.12-.91-.2-.62-.15-1.27-.34-1.96-.57h0c-1.18-1.13-2.71-2.29-4.83-3.43-1.46-.79-2.78-1.29-3.98-1.6-2.18-.55-4.01-.47-5.76-.21-3.69.55-7.03,1.84-12.9-.17-4.01-1.36-6.18-3.03-7.96-4.79Z"/>
            <path class="cls-3" d="M389.97,288.06c2.15-.38,4.15-1.01,6.88-1.15.7.29,1.48.55,2.33.79,3.22.93,5.62,1.04,7.69.83,2.02-.2,3.73-.71,5.62-1.05,2.47-.43,5.25-.57,9.36.7,6.36,1.97,8.19,4.88,10.95,7.6-1.73.27-3.6.39-5.95,0-1.53-1.18-3.48-2.28-6.37-3.17-1.24-.38-2.36-.63-3.38-.79-2.17-.33-3.91-.23-5.51.03-4.02.64-7.11,2.2-13.69.3-3.9-1.12-6.13-2.56-7.93-4.09Z"/>
            <path class="cls-3" d="M386.35,283.43l1.05-3.76c1.29,1.09,2.34,2.27,3.55,3.4-1.37.26-2.84.43-4.6.36Z"/>
          </g>
          <g>
            <path class="cls-5" d="M302.13,267.44l1.09-4.89c1.76-.02,3.22-.27,4.57-.6,3.79-.9,6.77-2.37,13.31-.83,4.18.98,6.51,2.5,8.42,4.11-1.87.43-3.55,1.03-5.55,1.34-1.16-.43-2.52-.77-4.16-.98-2.38-.3-4.29-.29-5.93-.12-2.72.28-4.69,1.02-6.81,1.51-1.47.34-3.02.56-4.94.46Z"/>
            <path class="cls-5" d="M328.86,269.64c1.59-.34,3.32-.54,5.5-.33,1.6,1.08,3.61,2.05,6.55,2.78,1.26.31,2.38.51,3.41.61,2.37.25,4.23,0,5.94-.37,3.79-.82,6.87-2.33,13.29-.64,4.15,1.09,6.44,2.66,8.32,4.32-2.06.43-3.92,1.05-6.2,1.27-.95-.41-2.03-.78-3.28-1.11-2.93-.77-5.16-.87-7.09-.68-2.29.23-4.13.88-6.19,1.33-2.44.53-5.18.79-9.32-.24-6.07-1.51-8.18-4.44-10.94-6.95Z"/>
            <path class="cls-5" d="M370.35,280.21c1.73-.42,3.53-.68,5.76-.37,1.65,1.26,3.75,2.42,6.98,3.32.86.24,1.65.41,2.4.54h0c2.88.49,5.05.24,7.03-.18,1.63-.34,3.13-.79,4.81-1.05l-1.37,4.79c-1.83.27-3.43.73-5.21,1.02-2.34.37-4.98.43-8.9-.65-6.6-1.82-8.43-4.77-11.51-7.42Z"/>
            <path class="cls-5" d="M365.67,277.28c2.28-.22,4.14-.84,6.2-1.27,1.43,1.27,2.63,2.6,4.24,3.83-2.22-.32-4.03-.06-5.76.37-1.23-1.06-2.66-2.07-4.68-2.93Z"/>
            <path class="cls-5" d="M323.97,266.58c2-.31,3.68-.91,5.55-1.34,1.61,1.36,2.94,2.8,4.84,4.08-2.18-.21-3.91-.01-5.5.33-1.32-1.19-2.78-2.28-4.89-3.07Z"/>
            <path class="cls-3" d="M390.76,288.28c1.78-.28,3.37-.74,5.21-1.02l-1.08,3.78c-1.74-.82-2.99-1.76-4.13-2.76Z"/>
            <path class="cls-3" d="M349.12,276.83c2.06-.45,3.9-1.1,6.19-1.33.95.4,2.03.77,3.29,1.09,2.93.76,5.16.87,7.08.69,2.28-.22,4.14-.84,6.2-1.27,2.46-.51,5.22-.72,9.36.41,6.48,1.78,8.39,4.49,11.29,7.09-1.99.43-4.15.67-7.03.19h0c-1.35-.93-3.03-1.86-5.26-2.73-1.54-.6-2.9-.95-4.13-1.13-2.22-.32-4.03-.06-5.76.37-3.63.88-6.88,2.45-12.93.87-4.13-1.07-6.41-2.61-8.3-4.25Z"/>
            <path class="cls-3" d="M307.07,266.99c2.13-.49,4.09-1.22,6.81-1.51.72.25,1.5.47,2.37.67,3.27.76,5.66.74,7.72.43,2-.31,3.68-.91,5.55-1.34,2.44-.56,5.2-.85,9.37.18,6.45,1.6,8.44,4.38,11.37,6.92-1.71.38-3.56.62-5.94.37-1.6-1.09-3.61-2.07-6.55-2.79-1.26-.31-2.39-.5-3.42-.6-2.18-.21-3.91-.01-5.5.33-3.98.85-6.99,2.58-13.66,1.02-3.96-.92-6.26-2.24-8.13-3.68Z"/>
            <path class="cls-3" d="M303.22,262.55l.85-3.81c1.35,1.02,2.45,2.14,3.72,3.21-1.35.33-2.81.57-4.57.6Z"/>
          </g>
          <g>
            <path class="cls-5" d="M222.26,252.57l-1.13-.59c.04-.53.36-1.02.66-1.47.31-.45.64-.87.96-1.28l.69-.83.36-.4c.21-.16.44-.29.66-.43.9-.56,1.84-1.05,2.88-1.45,2.09-.8,4.62-1.27,8.1-1,4.45.36,6.98,1.62,9.08,3.01-1.83.64-3.44,1.43-5.39,1.99-1.21-.27-2.61-.43-4.28-.38-2.41.07-4.3.45-5.84.98-1.28.44-2.32,1-3.2,1.6-.43.29-.85.62-1.15.93-.17.29-.34.57-.45.85-.08.19-.17.37-.18.54-.04.17-.07.33.01.44-.06-.17-.4-.71-.47-.91-.14-.27-.31-.54-.53-.8-.12-.19-.26-.37-.45-.53-.13-.12-.19-.19-.35-.26Z"/>
            <path class="cls-5" d="M244.34,252.57c1.54-.51,3.24-.89,5.44-.88,1.7.92,3.78,1.71,6.77,2.2,1.28.21,2.41.32,3.45.34,2.38.07,4.22-.31,5.9-.8,3.72-1.08,6.72-2.79,13.25-1.49,4.22.84,6.6,2.28,8.57,3.84-2.04.54-3.85,1.27-6.12,1.62-.97-.35-2.07-.66-3.34-.91-2.97-.59-5.21-.55-7.12-.23-2.26.38-4.06,1.15-6.07,1.74-2.39.71-5.09,1.16-9.26.47-6.11-1-8.45-3.69-11.46-5.9Z"/>
            <path class="cls-5" d="M286.43,260.06c1.7-.52,3.49-.88,5.73-.68,1.72,1.17,3.88,2.22,7.15,2.94.87.19,1.67.33,2.42.41h0c2.9.34,5.05-.02,7.01-.55,1.61-.42,3.09-.95,4.75-1.29l-1.12,4.86c-1.82.37-3.39.91-5.15,1.29-2.32.49-4.95.69-8.92-.18-6.68-1.46-8.66-4.31-11.89-6.78Z"/>
            <path class="cls-5" d="M281.59,257.4c2.27-.35,4.08-1.08,6.12-1.62,1.5,1.19,2.77,2.45,4.44,3.59-2.24-.2-4.03.16-5.73.68-1.29-.99-2.77-1.91-4.84-2.65Z"/>
            <path class="cls-5" d="M239.13,250.1c1.95-.56,3.56-1.35,5.39-1.99,1.77,1.18,3.24,2.48,5.26,3.58-2.19,0-3.9.37-5.44.88-1.43-1.04-3.01-1.96-5.21-2.47Z"/>
            <path class="cls-3" d="M307.24,267.02c1.76-.38,3.33-.92,5.15-1.29l-.88,3.83c-1.78-.73-3.08-1.6-4.27-2.54Z"/>
            <path class="cls-3" d="M265.06,258c2.01-.59,3.81-1.37,6.07-1.74.97.34,2.08.64,3.35.88,2.97.58,5.2.56,7.11.26,2.27-.35,4.08-1.08,6.12-1.62,2.43-.64,5.18-1.01,9.38-.1,6.58,1.43,8.62,4.04,11.66,6.49-1.96.53-4.11.89-7.01.55h0c-1.4-.86-3.12-1.69-5.39-2.44-1.57-.52-2.95-.8-4.18-.91-2.24-.2-4.03.16-5.73.68-3.57,1.08-6.73,2.83-12.84,1.63-4.17-.81-6.54-2.19-8.53-3.69Z"/>
            <path class="cls-3" d="M224.22,254.08c.1-.28.28-.56.45-.85.3-.31.72-.63,1.15-.93.87-.6,1.92-1.16,3.2-1.6.75.08,1.55.14,2.43.17,3.32.15,5.68-.19,7.68-.77,1.95-.56,3.56-1.35,5.39-1.99,2.39-.82,5.15-1.38,9.44-.71,6.63,1.05,8.82,3.71,11.93,6.03-1.68.49-3.51.87-5.9.8-1.67-.96-3.76-1.78-6.75-2.26-1.28-.2-2.43-.29-3.46-.29-2.19,0-3.9.37-5.44.88-1.92.64-3.57,1.48-5.56,2.1-1.98.62-4.31.98-7.52.84-1.9-.07-3.38-.25-4.58-.5-.61-.12-1.13-.25-1.61-.4-.25-.06-.3-.17-.46-.25-.14-.1-.26-.19-.38-.28Z"/>
            <path class="cls-3" d="M221.13,251.97l-3.46-1.81c.27-.3.56-.56.86-.79.29-.2.55-.3.82-.42.28-.12.51-.16.73-.19.22-.03.45-.05.65-.05.79.05,1.43.26,2.01.5-.33.41-.65.83-.96,1.28-.3.46-.61.95-.66,1.47Z"/>
          </g>
        </g>
      </g>
    </g>
  </g>
  <g>
    <rect class="cls-8" x="161.95" y="192.29" width="28.76" height="115.42" transform="translate(426.33 73.67) rotate(90)"/>
    <rect class="cls-4" x="51.77" y="181.04" width="34.37" height="137.91" transform="translate(318.96 181.04) rotate(90)"/>
  </g>
</svg>