<?xml version="1.0" encoding="UTF-8"?>
<svg id="Layer_1" data-name="Layer 1" xmlns="http://www.w3.org/2000/svg" viewBox="0 0 500 500">
  <defs>
    <style>
      .cls-1 {
        fill: #d37d0f;
      }

      .cls-1, .cls-2, .cls-3, .cls-4 {
        stroke-width: 0px;
      }

      .cls-2 {
        fill: #96000b;
      }

      .cls-3 {
        fill: #7d4309;
      }

      .cls-4 {
        fill: #d40103;
      }
    </style>
  </defs>
  <path class="cls-4" d="M266.26,329.35c-9.08,14.97-21.74,24.59-39.49,26.65-1.85-1.95-4.3-1.33-6.38-1.1-8.44,1-16.13-2.31-22.3-6.65-9.46-6.65-17.88-14.78-24.05-25.15-12.22-20.52-16.46-43.11-17.9-66.29-.81-12.97,1.68-26,3.62-38.93.33-2.22,1.6-5.63-.79-6.53-2.04-.79-2.52,2.58-3.14,4.45-2.68,8.09-3.43,16.61-5.74,24.84-3.35,11.95-2.76,11.7-14.95,11.49-23.61-.39-47.2-.5-70.84-1.79-16.52-.91-33.22,2.39-49.91.67-4.78-.5-13.45-.34-18-2.09.06-33.86,3.6-105.15,3.6-105.15l35.37.02s8.81.12,13.22.12c41.8.02,83.6-.17,125.38.44,18.58.27,37.21.87,55.75,2.02,10.64.67,19.3,5.99,28,14.2l.02.04c2.5,2.33,15.76,20.84,12.21,21.72-9.04,2.23-37.19-8.12-45.55-9.1-5.65-.67-11.12.91-15.86,3.8-8.36,5.07-16.25,10.93-21.45,19.5-8.88,14.7-13.59,30.68-14.53,47.83-.91,17.07,1.27,33.69,7.61,49.6,5.47,13.68,14.26,24.92,27.25,32.3,3.35,1.89,7.42,2.7,11.47,2.58,12.24-.33,24.47-.62,36.71-1.02,3.66-.12,7.21.25,10.66,1.54Z"/>
  <path class="cls-1" d="M500,253.09c0,13.68-2.27,26.52-6.21,37.52-.12.35-.25.69-.37,1.04-2.12,5.67-4.68,10.85-7.61,15.38v.02c-.81,1.23-1.64,2.41-2.49,3.55-2.89,3.87-6.09,7.15-9.52,9.75-.98.77-2,1.46-3.01,2.08-2.33,1.46-4.76,2.58-7.25,3.39-2.81.89-5.72,1.37-8.71,1.37-9.25,0-17.83-4.55-25.01-12.39-1.25-1.35-2.45-2.81-3.6-4.36-1.81-2.43-3.51-5.09-5.05-7.94h-.02c-1.06-1.93-2.04-3.95-2.95-6.05-1.21-2.68-2.27-5.51-3.22-8.46-.89-2.68-1.66-5.49-2.33-8.38-.56-2.37-1.06-4.8-1.46-7.28-.46-2.76-.81-5.59-1.06-8.48-.27-3.03-.44-6.15-.46-9.31-.02-.48-.02-.96-.02-1.46,0-2.29.06-4.55.19-6.8.25-4.64.77-9.12,1.54-13.47v-.02c.21-1.23.44-2.45.71-3.64.94-4.59,2.14-8.96,3.62-13.07,0,0-.02,0,0-.02-.02-.02-.02-.04,0-.06.33-.91.64-1.77.98-2.64t.02-.02c6.84-17.63,18.1-30.18,31.22-33.49h.02c2.24-.56,4.53-.85,6.88-.85,24.96,0,45.19,33.17,45.19,74.08Z"/>
  <path class="cls-3" d="M497.11,255.42c2.52-3.28,1.77-6.05-.21-8.98-1.43-2.14-2.49-4.57-.6-6.69,3.6-4.01,1.37-6.51-1.95-8.61-3.78-2.37-4.01-5.84-2.24-8.98,2.29-3.99,1.04-5.18-2.85-5.82-1.66-.25-3.22-1.14-4.82-1.75.23-2.41.44-4.82.64-7.23,1.46-.02,2.72-.44,2.87-2.08.12-1.16-.85-1.7-1.81-2.1-1.29-.56-2.79-1.83-3.37.77-.58.17-1.14.33-1.73.5-1.37-.15-2.72-.27-4.09-.42-.35-.73-.71-1.46-1.06-2.18.04-1.73.15-3.43,1.1-4.99,1.06-1.73,1.81-3.64-.52-4.86-2.45-1.27-3.41.5-4.03,2.47-.39,1.25-1.06,2.31-2.49,2.18-1.75-.12-2.85-1.39-3.24-2.93-.48-2.04-.48-4.09,1.06-5.88.85-1,1.27-2.47-.15-3.08-1.68-.71-3.68-1.14-5.47-.96-1.18.12-.42,1.7-.27,2.68.62,3.74-.64,6.09-4.78,6.21-.33-.31-.67-.62-1-.96-1.77-3.41-.87-6.82.39-10.25-2.93-.67-5.76-1.23-8.56-1.64l6.88-.85c-2.85-.39-82.1.62-115.44-.58-19.64-.73-39.35-.81-59.01-1.18-5.24-.1-24.09-2.08-30.95-2.02-11.7.08-13.36-.62-25-2-5.65-.67-11.12.91-15.86,3.8-8.36,5.07-16.25,10.93-21.45,19.5-8.88,14.7-13.59,30.68-14.53,47.83-.91,17.07,1.27,33.69,7.61,49.6,5.47,13.68,14.26,24.92,27.25,32.3,3.35,1.89,7.42,2.7,11.47,2.58,12.24-.33,24.47-.62,36.71-1.02,3.66-.12,7.21.25,10.66,1.54.21-.1.42-.23.62-.33.23-.1.44-.23.64-.31,3.37-1.56,6.92-1.85,10.68-1.77,21.41.5,42.82-.08,64.25.58,13.57.44,27.21-.1,40.84.31,18.13.54,36.29.29,54.46.29,5.97,0,11.95.58,17.94-.06,2.76-.29,7.05-.25,7.67-1.89.04-.12.08-.25.15-.35,1.39-3.33,3.82-2.58,6.24-3.18.31-.06.67-.12,1.02-.21,1.02-.62,2.04-1.31,3.01-2.08-.15-.6-.67-1.39-1.68-2.47-1.29-1.31-.96-4.01.06-5.9.56-1.04,1.97-1.02,2.74-.29,2.58,2.41,6.05.81,8.4-1.08.85-1.14,1.68-2.33,2.49-3.55v-.02c-.42-.73-1.02-.46-1.73.12-2.62,2.2-3.51-.21-3.85-1.89-.42-2.31.37-5.24,3.1-4.93,5.72.67,7.28-.39,4.22-5.94-1.04-1.91-.94-4.76.46-6.96.75-1.16,2.12-1.21,3.28-.81,2.58.89,1.77,3.2,2.12,5.03,0,.1.02.19.04.29.04,0,.17-.5.33-1.33.46-2.49,1.18-8.52-.75-12.1-1.62-3.01-.42-6.3,2.31-8.31,2.83-2.1,2.83-4.59,1.81-7.34-.96-2.54-1.66-5.32-.04-7.44ZM493.95,225.11c2.22,0,3.06,1.89,2.83,3.6-.27,2.06-.15,5.09-2.99,5.34-3.03.29-2.6-2.49-2.81-4.34,0-2.31.04-4.57,2.97-4.59ZM486.45,252.68c-3.14.02-3.45-2.79-3.68-5.15-.23-2.29.96-3.85,3.24-4.66,2.97.79,2.85,3.64,3.31,5.72.39,1.79-.69,4.07-2.87,4.09ZM484.12,228.52c2.56.06,1.21,2.68,1.68,4.14-.37,1.83.94,4.64-2.43,4.66-2.52.02-2.79-2.04-2.81-4.07,0-2.49.87-4.78,3.55-4.72ZM476.45,206.9c-.12-2.12.02-4.45,2.91-4.45s2.83,2.43,3.14,4.36c-.15,2.62-1.27,4.57-3.97,4.47-2.91-.12-1.97-2.68-2.08-4.39ZM478.41,250.97c-.02,2.7-.94,4.99-3.66,4.84-2.83-.15-2.37-2.87-2.41-4.88-.08-2.54.91-4.88,3.53-4.72,2.56.17,2.35,2.93,2.54,4.76ZM476.43,235.98c-1.14,1.75-.06,5.22-3.14,5.01-1.97-.12-4.16-2.14-3.64-4.84.46-2.27.81-5.45,3.78-5.45,3.06.02,2.08,3.33,2.99,5.28ZM456.93,269.78c2.62.27,1.41,2.62,1.93,3.87-.44,1.66.67,4.18-2.04,4.03-2.56-.15-2.33-2.52-2.31-4.37,0-1.68-.19-3.78,2.41-3.53ZM456.37,285.48c1.14-1,2.45-1.46,3.74-.69,2.66,1.6,1.02,4.39,1.6,6.57-.1,1-.23,1.97-.33,2.97-2.62.21-5.8,1.45-6.42-2.66-.33-2.12-.58-4.47,1.41-6.19ZM456.85,305.72c.12-2.18.1-4.8,3.22-4.74,2.83.04,2.85,2.37,2.81,4.49-.08,2.06-.04,4.34-2.91,4.45-2.83.1-3.22-2-3.12-4.2ZM460.49,317.55c2.64-.21,2.37,1.89,2.45,3.6-.15,1.66.31,4.05-2.08,4.05-2.29.02-2.81-2.39-2.89-4.24-.06-1.52.62-3.26,2.52-3.41ZM457.29,258.08c.17,2.14-.48,5.01-3.35,4.88-3.08-.17-3.37-2.93-3.26-5.49-.15-2.49.6-4.95,3.31-4.91,3.22.04,3.14,3.37,3.3,5.51ZM450.59,306.39c-2.72.08-4.26-1.64-4.18-4.61.08-2.79,1.16-4.74,4.09-4.78,2.91-.04,2.89,2.27,2.89,4.99.06,1.64.31,4.3-2.81,4.41ZM451.59,317.01c-.12,1.37-.17,3.14-2.2,3.18-1.7.04-2.04-1.48-2.1-2.89-.08-1.41.08-2.79,1.91-2.95,1.75-.15,2.35.94,2.39,2.66ZM442.97,257.39c2.24.5,2.35,2.22,2.33,4.01-.02,1.43-.08,2.93-2.04,2.95-2.33.02-2.22-1.81-2.16-3.35.06-1.41-.5-3.28,1.87-3.62ZM450.26,276.47c-.5,2.22-.75,5.15-3.39,5.09-3.74-.12-3.93-3.8-4.34-6.55-.35-2.35,1.27-4.01,3.62-3.97,3.49.04,3.53,3.01,4.12,5.43ZM450.8,230.87c-3.08.21-3.37-2.49-3.28-4.76.06-2.56.29-5.78,3.6-5.82,2.66-.02,2.87,2.95,3.35,5.13-.48,2.35-.54,5.26-3.66,5.45ZM448.93,214.37c-2.58.12-2.64-2.16-2.64-4.09s-.35-4.57,2.52-4.72c2.56-.12,2.64,2.14,2.68,4.2-.21,1.83.33,4.49-2.56,4.61ZM446.17,198.88c-2.49.06-2.93-1.85-3.01-5.15-.06-1.16.71-3.53,3.33-3.6,2.97-.06,1.91,3.14,2.43,4.8.56,1.81-.29,3.87-2.74,3.95ZM443.88,219.27c-.19,2.02-.85,4.51-3.49,4.34-2.7-.19-3.45-2.45-3.37-5.2.69-1.83.91-4.74,3.82-4.39,2.58.31,3.26,2.95,3.03,5.24ZM436.38,200.38c2.7.08,3.49,2.29,3.53,4.7.17,2.52-.71,4.88-3.26,4.93-3.95.06-2.47-3.78-3.22-5.9-.77-2.24.96-3.76,2.95-3.72ZM434.73,247.98c.02,2.06-.15,4.59-2.7,4.76-3.31.19-1.97-2.83-2.41-4.45.19-2.06-.5-4.55,2.79-4.47,2.97.1,2.33,2.41,2.33,4.16ZM432.97,258.64c3.03.17,3.82,2.39,3.74,5.51-.42,2.1-.54,5.3-3.97,5.09-4.2-.27-3.08-4.39-3.62-6.88-.48-2.27,1.46-3.87,3.85-3.72ZM436.06,274.56c2.39-.1,2.83,2.56,2.76,5.24-.23,1.85.23,4.91-3.14,5.05-2.74.12-3.6-2.18-3.7-4.68-.12-2.99,1.23-5.49,4.07-5.61ZM442.72,240.02c2.95-.1,2.18,2.87,2.49,4.43-.1,2.58.27,5.28-3.1,5.22-2.47-.06-2.87-2.27-2.83-4.18.04-2.43.39-5.38,3.43-5.47ZM466.6,266.66c2.2.08,2.54,1.93,2.52,4.26-.06,1.37-.71,3.3-2.66,3.22-1.83-.1-2.54-2.02-2.54-3.91.02-1.87.48-3.66,2.68-3.58ZM465.33,283.83c.08-1.64,1.21-2.35,2.76-2.47,1.56-.15,2.43.37,3.1,1.95,1.85,4.37.48,7.65-3.99,9.02-.67-.44-1.31-.87-1.95-1.29.02-2.41-.04-4.82.08-7.21ZM470.01,307.86c-2.24-.1-1.91-2.04-1.93-3.51,0-1.66-.29-3.93,2.04-4.03,2.43-.08,2.02,2.22,2.18,3.87-.21,1.6.42,3.82-2.29,3.68ZM466.16,204.04c.1-2.1.21-4.51,2.91-4.74,2.97-.27,3.12,2.08,3.1,4.26-.04,2.1.12,4.47-2.81,4.68-2.89.19-3.33-1.93-3.2-4.2ZM461.8,204.95c-.04,2.52-.56,4.97-3.08,4.84-2.35-.12-2.79-2.74-2.93-4.82-.15-2.33.91-4.51,3.26-4.47,2.72.02,2.52,2.72,2.74,4.45ZM458.6,184.33c1.31,1.39,2.37,2.97,1.64,5.03-.52,1.43-1.12,2.83-1.68,4.24l-.02.06c-.58.04-1.16.06-1.75.08-1-.37-2-.73-2.99-1.1-.02-1.54-.04-3.06-.06-4.59-.02-1.54-.15-3.16,1.54-3.99,1.12-.56,2.41-.69,3.33.27ZM425.69,216.07s-.02-.04,0-.06c.02-.39.08-.79.19-1.14.02-.12.06-.25.1-.37.06-.23.17-.44.27-.62l.02-.02c.1-.17.23-.33.39-.48t.02-.02c.1-.1.25-.21.39-.27.1-.06.23-.1.35-.15.15-.06.31-.1.48-.12.17-.02.35-.04.54-.04s.39.02.6.04c2.72.31,3.45,2.62,3.37,4.95-.04,1.68-.58,3.35-.89,5.03-1.58-.02-3.14-.04-4.72-.06-.39-1.83-1.35-3.47-1.23-5.47.02-.39.04-.79.1-1.16,0,0-.02,0,0-.02ZM421.37,232.8c.02-.62.02-1.29.08-1.89,0-.1.02-.21.04-.29,0-.1,0-.19.04-.29.02-.12.04-.23.08-.33.04-.17.1-.35.21-.5.06-.12.15-.23.25-.33.08-.08.19-.17.29-.23.08-.06.19-.12.29-.15.12-.06.29-.1.48-.15.15-.02.31-.04.5-.04.1,0,.21.02.33.02,2.02.15,3.6,2.37,3.22,4.53-.33,1.97-.35,5.09-3.43,4.93-2.89-.15-2.24-2.91-2.41-4.91,0-.12.02-.23.02-.35v-.02ZM418.58,247.81c.1-.33.25-.64.5-.91.08-.12.19-.23.31-.33s.27-.19.44-.27c.19-.08.37-.15.6-.21.21-.06.46-.1.73-.12,2.85-.21,3.33,1.81,3.26,4.07-.06,2.2.23,4.82-3.03,4.88-.73.02-1.29-.12-1.73-.37-.15-.1-.29-.21-.42-.35-.12-.1-.21-.23-.29-.35-.08-.15-.17-.29-.23-.46-.31-.81-.35-1.83-.35-2.83-.02-.96-.04-1.95.21-2.74ZM420.45,272.11s0-.02-.02-.02c-.21-.12-.39-.27-.56-.44-.98-1.02-1.04-2.91-1.18-4.22-.08-.6-.02-1.18.15-1.7.02-.1.06-.23.1-.33.02-.02.04-.04.04-.06.04-.1.08-.21.17-.31.17-.33.39-.62.67-.87.08-.1.21-.21.31-.29.37-.31.79-.54,1.25-.69.15-.06.31-.1.48-.12.06-.02.12-.02.19-.02.21-.04.39-.06.6-.06,2.06.02,2.79,2.22,2.7,4.68-.42,1.83-.58,4.61-3.33,4.76-.31.02-.58,0-.83-.06-.27-.04-.52-.12-.73-.23ZM421.83,285.52c-.06-.25-.12-.5-.17-.77-.04-.25-.06-.52-.06-.79,0-.25,0-.52.02-.77,0-.17,0-.33.02-.5.02-.08.02-.19.02-.27.04-.21.06-.44.1-.67.04-.21.08-.42.15-.6.06-.23.12-.44.23-.64.06-.17.12-.31.21-.46.08-.17.19-.31.29-.44.15-.21.31-.37.52-.52.12-.12.25-.21.39-.29.23-.12.5-.23.79-.29.21-.06.44-.08.67-.1,2.81-.17,2.97,2.81,3.49,4.68.06,2.6-.77,4.66-3.18,4.88-.1.02-.25.02-.35.02-1.66.02-2.7-1.04-3.14-2.47ZM431.14,302.5c-.12,0-.27,0-.39-.02-.27-.04-.5-.1-.73-.19-.1-.04-.21-.08-.31-.15-.21-.1-.37-.25-.54-.39-.96-.89-1.27-2.39-1.14-3.7.04-.44.08-.94.15-1.46,0-.04.02-.08.02-.15.02-.21.06-.44.1-.64.02-.15.06-.29.1-.44.02-.15.06-.29.12-.42.04-.12.08-.25.15-.37.08-.21.17-.37.29-.54.08-.15.19-.27.29-.37.06-.08.12-.15.21-.21.27-.23.6-.39,1.02-.48.23-.06.46-.1.73-.1,3.03-.06,2.47,3.2,3.47,5.05-.5,2.08-.85,4.53-3.41,4.57h-.12ZM439.79,314.8c-.17.02-.31.02-.46.02-.17,0-.31-.02-.46-.04-1.31-.19-2-1.23-2.35-2.49-.12-.42-.21-.87-.25-1.33-.04-.17-.04-.35-.06-.52-.02-.27-.04-.54-.04-.81-.08-2.68,1.39-4.88,4.03-5.05,2.2-.15,3.12,1.81,2.85,3.2-.06,1.29-.1,2.56-.31,3.64-.1.54-.25,1.04-.44,1.5-.12.29-.29.56-.48.81-.08.12-.19.23-.29.31-.42.42-.98.67-1.73.77h-.02ZM473.48,268.24c-.06-2.33.85-4.3,3.18-4.57,2.66-.31,2.7,1.97,2.81,3.16.04,2.97-.54,5.24-2.95,5.38-2.16.15-2.97-1.89-3.03-3.97ZM475.39,283.21c.48-2.04-.98-5.09,2.85-4.93,3.64.12,3.7,3.31,3.95,5.65.31,2.68-1.68,4.99-4.18,4.88-3.58-.12-1.97-3.64-2.62-5.61ZM480.44,303.29c-2.41-.19-2.97-2.52-2.91-4.74.02-2.14.64-3.91,3.16-3.8,2.97.15,2.81,2.49,2.87,4.59.04,2.18-.98,4.12-3.12,3.95ZM483.73,263.57c.02-2.08.23-4.09,2.54-3.97,2.35.12,3.78,1.85,3.45,4.24-.29,2-.91,4.64-3.45,4.41-2.6-.23-2.37-2.91-2.54-4.68ZM488.47,294.31c-2.64.17-2.52-2.22-2.54-4.07-.02-2.27-.12-4.72,3.14-4.7,2.6.02,2.74,2.02,2.87,3.62-.04,2.76-.83,4.99-3.47,5.15ZM493.18,244.96c.19-2.2.73-5.05,3.37-4.95,2.93.1,2.24,3.2,2.66,4.72-.08,2.43.06,4.82-2.45,4.84-2.68.02-3.8-2.14-3.58-4.61ZM497.45,265.33c-3.35.06-3.03-2.58-3.1-3.35-.15-3.74.31-5.86,3.14-5.65,2.97.23,3.12,3.06,3.26,5.09.12,1.85-.98,3.85-3.31,3.91Z"/>
  <path class="cls-2" d="M-3.6,248.92c4.56,1.74,13.22,1.59,17.99,2.09,16.69,1.73,33.39-1.58,49.91-.67,23.63,1.29,47.22,1.4,70.84,1.8,12.18.21,11.59.45,14.94-11.5,2.3-8.22,3.06-16.74,5.74-24.83.62-1.87,1.09-5.24,3.13-4.47,2.39.9,1.12,4.31.78,6.54-1.93,12.93-4.42,25.96-3.61,38.94,1.44,23.16,5.68,45.75,17.9,66.27,6.18,10.37,14.58,18.52,24.04,25.17,6.17,4.34,13.86,7.64,22.3,6.65,2.09-.24,4.54-.86,6.38,1.1-1.4,1.44-3.23,1.04-4.91,1.02-29.22-.37-58.46-.24-87.65-1.33-33.21-1.24-66.42-.04-99.6-.98-10.18-.29-20.35-.73-30.54-.77C-.09,353.93,0,351.2,0,348.27c.03-18,0-35.99.03-53.99.03-15.23-3.7-30.13-3.63-45.35Z"/>
  <path class="cls-1" d="M426.71,264.15c-.42,2.1-.54,5.3-3.97,5.09-4.2-.27-3.08-4.39-3.62-6.88-.48-2.27,1.46-3.87,3.85-3.72,3.03.17,3.82,2.39,3.74,5.51Z"/>
  <path class="cls-1" d="M440.26,276.47c-.5,2.22-.75,5.15-3.39,5.09-3.74-.12-3.93-3.8-4.34-6.55-.35-2.35,1.27-4.01,3.62-3.97,3.49.04,3.53,3.01,4.12,5.43Z"/>
  <path class="cls-1" d="M437.81,290.09c-.5,2.22-.75,5.15-3.39,5.09-3.74-.12-3.93-3.8-4.34-6.55-.35-2.35,1.27-4.01,3.62-3.97,3.49.04,3.53,3.01,4.12,5.43Z"/>
  <path class="cls-1" d="M457.2,292.33c-.67-.44-1.31-.87-1.95-1.29.02-2.41-.04-4.82.08-7.21.08-1.64,1.21-2.35,2.76-2.47,1.56-.15,2.43.37,3.1,1.95,1.85,4.37.48,7.65-3.99,9.02Z"/>
  <path class="cls-1" d="M451.71,291.36c-.1,1-.23,1.97-.33,2.97-2.62.21-5.8,1.45-6.42-2.66-.33-2.12-.58-4.47,1.41-6.19,1.14-1,2.45-1.46,3.74-.69,2.66,1.6,1.02,4.39,1.6,6.57Z"/>
  <path class="cls-1" d="M468.01,288.82c-3.58-.12-1.97-3.64-2.62-5.61.48-2.04-.98-5.09,2.85-4.93,3.64.12,3.7,3.31,3.95,5.65.31,2.68-1.68,4.99-4.18,4.88Z"/>
  <path class="cls-1" d="M444.46,225.42c-.48,2.35-.54,5.26-3.66,5.45-3.08.21-3.37-2.49-3.28-4.76.06-2.56.29-5.78,3.6-5.82,2.66-.02,2.87,2.95,3.35,5.13Z"/>
  <path class="cls-1" d="M428.83,279.8c-.23,1.85.23,4.91-3.14,5.05-2.74.12-3.6-2.18-3.7-4.68-.12-2.99,1.23-5.49,4.07-5.61,2.39-.1,2.83,2.56,2.76,5.24Z"/>
  <path class="cls-1" d="M443.94,262.96c-3.08-.17-3.37-2.93-3.26-5.49-.15-2.49.6-4.95,3.31-4.91,3.22.04,3.14,3.37,3.3,5.51.17,2.14-.48,5.01-3.35,4.88Z"/>
  <path class="cls-1" d="M433.05,307.78c-.17,3.45-.27,6.67-3.26,7.03-2.97.35-3.55-2.74-3.62-5.18-.08-2.68,1.39-4.88,4.03-5.05,2.2-.15,3.12,1.81,2.85,3.2Z"/>
  <path class="cls-1" d="M440.59,306.39c-2.72.08-4.26-1.64-4.18-4.61.08-2.79,1.16-4.74,4.09-4.78,2.91-.04,2.89,2.27,2.89,4.99.06,1.64.31,4.3-2.81,4.41Z"/>
  <path class="cls-1" d="M422.43,217.75c-.04,1.68-.58,3.35-.89,5.03-1.58-.02-3.14-.04-4.72-.06-.39-1.83-1.35-3.47-1.23-5.47.15-2.39.27-4.8,3.47-4.45,2.72.31,3.45,2.62,3.37,4.95Z"/>
  <path class="cls-1" d="M450.24,189.36c-.52,1.43-1.12,2.83-1.68,4.24l-.02.06c-.58.04-1.16.06-1.75.08-1-.37-2-.73-2.99-1.1-.02-1.54-.04-3.06-.06-4.59-.02-1.54-.15-3.16,1.54-3.99,1.12-.56,2.41-.69,3.33.27,1.31,1.39,2.37,2.97,1.64,5.03Z"/>
  <path class="cls-1" d="M466.43,235.98c-1.14,1.75-.06,5.22-3.14,5.01-1.97-.12-4.16-2.14-3.64-4.84.46-2.27.81-5.45,3.78-5.45,3.06.02,2.08,3.33,2.99,5.28Z"/>
  <path class="cls-1" d="M418.5,283.08c.06,2.6-.77,4.66-3.18,4.88-2.45.23-3.68-1.7-3.72-4.01-.02-2.49.52-5.38,3.41-5.55,2.81-.17,2.97,2.81,3.49,4.68Z"/>
  <path class="cls-1" d="M433.88,219.27c-.19,2.02-.85,4.51-3.49,4.34-2.7-.19-3.45-2.45-3.37-5.2.69-1.83.91-4.74,3.82-4.39,2.58.31,3.26,2.95,3.03,5.24Z"/>
  <path class="cls-1" d="M426.65,210c-3.95.06-2.47-3.78-3.22-5.9-.77-2.24.96-3.76,2.95-3.72,2.7.08,3.49,2.29,3.53,4.7.17,2.52-.71,4.88-3.26,4.93Z"/>
  <path class="cls-1" d="M415.34,267.64c-.42,1.83-.58,4.61-3.33,4.76-3.08.17-3.1-3.01-3.33-4.97-.31-2.47,1.62-4.47,3.95-4.47,2.06.02,2.79,2.22,2.7,4.68Z"/>
  <path class="cls-1" d="M424.67,297.93c-.5,2.08-.85,4.53-3.41,4.57-2.58.06-3.45-2.43-3.24-4.45.21-2,.25-5.11,3.18-5.18,3.03-.06,2.47,3.2,3.47,5.05Z"/>
  <path class="cls-1" d="M490.75,261.43c.12,1.85-.98,3.85-3.31,3.91-3.35.06-3.03-2.58-3.1-3.35-.15-3.74.31-5.86,3.14-5.65,2.97.23,3.12,3.06,3.26,5.09Z"/>
  <path class="cls-1" d="M482.04,277.5c.12,1.85-.98,3.85-3.31,3.91-3.35.06-3.03-2.58-3.1-3.35-.15-3.74.31-5.86,3.14-5.65,2.97.23,3.12,3.06,3.26,5.09Z"/>
  <path class="cls-1" d="M490.75,277.5c.12,1.85-.98,3.85-3.31,3.91-3.35.06-3.03-2.58-3.1-3.35-.15-3.74.31-5.86,3.14-5.65,2.97.23,3.12,3.06,3.26,5.09Z"/>
  <path class="cls-1" d="M476.45,252.68c-3.14.02-3.45-2.79-3.68-5.15-.23-2.29.96-3.85,3.24-4.66,2.97.79,2.85,3.64,3.31,5.72.39,1.79-.69,4.07-2.87,4.09Z"/>
  <path class="cls-1" d="M435.21,244.44c-.1,2.58.27,5.28-3.1,5.22-2.47-.06-2.87-2.27-2.83-4.18.04-2.43.39-5.38,3.43-5.47,2.95-.1,2.18,2.87,2.49,4.43Z"/>
  <path class="cls-1" d="M468.41,250.97c-.02,2.7-.94,4.99-3.66,4.84-2.83-.15-2.37-2.87-2.41-4.88-.08-2.54.91-4.88,3.53-4.72,2.56.17,2.35,2.93,2.54,4.76Z"/>
  <path class="cls-1" d="M414.42,250.04c-.06,2.2.23,4.82-3.03,4.88-2.87.04-3.01-2.2-3.01-4.37-.04-2.12-.08-4.36,2.79-4.59,2.85-.21,3.33,1.81,3.26,4.07Z"/>
  <path class="cls-1" d="M489.21,244.73c-.08,2.43.06,4.82-2.45,4.84-2.68.02-3.8-2.14-3.58-4.61.19-2.2.73-5.05,3.37-4.95,2.93.1,2.24,3.2,2.66,4.72Z"/>
  <path class="cls-1" d="M481.86,216.02c-.08,2.43.06,4.82-2.45,4.84-2.68.02-3.8-2.14-3.58-4.61.19-2.2.73-5.05,3.37-4.95,2.93.1,2.24,3.2,2.66,4.72Z"/>
  <path class="cls-1" d="M470.56,218.75c-.08,2.43.06,4.82-2.45,4.84-2.68.02-3.8-2.14-3.58-4.61.19-2.2.73-5.05,3.37-4.95,2.93.1,2.24,3.2,2.66,4.72Z"/>
  <path class="cls-1" d="M459.54,219.41c-.08,2.43.06,4.82-2.45,4.84-2.68.02-3.8-2.14-3.58-4.61.19-2.2.73-5.05,3.37-4.95,2.93.1,2.24,3.2,2.66,4.72Z"/>
  <path class="cls-1" d="M452.89,231.12c-.08,2.43.06,4.82-2.45,4.84-2.68.02-3.8-2.14-3.58-4.61.19-2.2.73-5.05,3.37-4.95,2.93.1,2.24,3.2,2.66,4.72Z"/>
  <path class="cls-1" d="M444.62,241.67c-.08,2.43.06,4.82-2.45,4.84-2.68.02-3.8-2.14-3.58-4.61.19-2.2.73-5.05,3.37-4.95,2.93.1,2.24,3.2,2.66,4.72Z"/>
  <path class="cls-1" d="M431.86,232.86c-.08,2.43.06,4.82-2.45,4.84-2.68.02-3.8-2.14-3.58-4.61.19-2.2.73-5.05,3.37-4.95,2.93.1,2.24,3.2,2.66,4.72Z"/>
  <path class="cls-1" d="M455.13,245.4c-.08,2.43.06,4.82-2.45,4.84-2.68.02-3.8-2.14-3.58-4.61.19-2.2.73-5.05,3.37-4.95,2.93.1,2.24,3.2,2.66,4.72Z"/>
  <path class="cls-1" d="M457.85,259.53c-.08,2.43.06,4.82-2.45,4.84-2.68.02-3.8-2.14-3.58-4.61.19-2.2.73-5.05,3.37-4.95,2.93.1,2.24,3.2,2.66,4.72Z"/>
  <path class="cls-1" d="M452.88,305.47c-.08,2.06-.04,4.34-2.91,4.45-2.83.1-3.22-2-3.12-4.2.12-2.18.1-4.8,3.22-4.74,2.83.04,2.85,2.37,2.81,4.49Z"/>
  <path class="cls-1" d="M462.17,203.56c-.04,2.1.12,4.47-2.81,4.68-2.89.19-3.33-1.93-3.2-4.2.1-2.1.21-4.51,2.91-4.74,2.97-.27,3.12,2.08,3.1,4.26Z"/>
  <path class="cls-1" d="M472.5,206.82c-.15,2.62-1.27,4.57-3.97,4.47-2.91-.12-1.97-2.68-2.08-4.39-.12-2.12.02-4.45,2.91-4.45s2.83,2.43,3.14,4.36Z"/>
  <path class="cls-1" d="M451.8,204.95c-.04,2.52-.56,4.97-3.08,4.84-2.35-.12-2.79-2.74-2.93-4.82-.15-2.33.91-4.51,3.26-4.47,2.72.02,2.52,2.72,2.74,4.45Z"/>
  <path class="cls-1" d="M417.19,233.16c-.33,1.97-.35,5.09-3.43,4.93-2.89-.15-2.24-2.91-2.41-4.91.17-1.95-.42-4.78,2.62-4.55,2.02.15,3.6,2.37,3.22,4.53Z"/>
  <path class="cls-1" d="M481.94,289.15c-.04,2.76-.83,4.99-3.47,5.15-2.64.17-2.52-2.22-2.54-4.07-.02-2.27-.12-4.72,3.14-4.7,2.6.02,2.74,2.02,2.87,3.62Z"/>
  <path class="cls-1" d="M473.56,299.34c.04,2.18-.98,4.12-3.12,3.95-2.41-.19-2.97-2.52-2.91-4.74.02-2.14.64-3.91,3.16-3.8,2.97.15,2.81,2.49,2.87,4.59Z"/>
  <path class="cls-1" d="M486.78,228.71c-.27,2.06-.15,5.09-2.99,5.34-3.03.29-2.6-2.49-2.81-4.34,0-2.31.04-4.57,2.97-4.59,2.22,0,3.06,1.89,2.83,3.6Z"/>
  <path class="cls-1" d="M469.47,266.83c.04,2.97-.54,5.24-2.95,5.38-2.16.15-2.97-1.89-3.03-3.97-.06-2.33.85-4.3,3.18-4.57,2.66-.31,2.7,1.97,2.81,3.16Z"/>
  <path class="cls-1" d="M479.71,263.84c-.29,2-.91,4.64-3.45,4.41-2.6-.23-2.37-2.91-2.54-4.68.02-2.08.23-4.09,2.54-3.97,2.35.12,3.78,1.85,3.45,4.24Z"/>
  <path class="cls-1" d="M436.17,198.88c-2.49.06-2.93-1.85-3.01-5.15-.06-1.16.71-3.53,3.33-3.6,2.97-.06,1.91,3.14,2.43,4.8.56,1.81-.29,3.87-2.74,3.95Z"/>
  <path class="cls-1" d="M424.73,247.98c.02,2.06-.15,4.59-2.7,4.76-3.31.19-1.97-2.83-2.41-4.45.19-2.06-.5-4.55,2.79-4.47,2.97.1,2.33,2.41,2.33,4.16Z"/>
  <path class="cls-1" d="M441.49,209.75c-.21,1.83.33,4.49-2.56,4.61-2.58.12-2.64-2.16-2.64-4.09s-.35-4.57,2.52-4.72c2.56-.12,2.64,2.14,2.68,4.2Z"/>
  <path class="cls-1" d="M473.37,237.31c-2.52.02-2.79-2.04-2.81-4.07,0-2.49.87-4.78,3.55-4.72,2.56.06,1.21,2.68,1.68,4.14-.37,1.83.94,4.64-2.43,4.66Z"/>
  <path class="cls-1" d="M452.94,321.14c-.15,1.66.31,4.05-2.08,4.05-2.29.02-2.81-2.39-2.89-4.24-.06-1.52.62-3.26,2.52-3.41,2.64-.21,2.37,1.89,2.45,3.6Z"/>
  <path class="cls-1" d="M459.11,270.93c-.06,1.37-.71,3.3-2.66,3.22-1.83-.1-2.54-2.02-2.54-3.91.02-1.87.48-3.66,2.68-3.58,2.2.08,2.54,1.93,2.52,4.26Z"/>
  <path class="cls-1" d="M448.87,273.65c-.44,1.66.67,4.18-2.04,4.03-2.56-.15-2.33-2.52-2.31-4.37,0-1.68-.19-3.78,2.41-3.53,2.62.27,1.41,2.62,1.93,3.87Z"/>
  <path class="cls-1" d="M462.29,304.18c-.21,1.6.42,3.82-2.29,3.68-2.24-.1-1.91-2.04-1.93-3.51,0-1.66-.29-3.93,2.04-4.03,2.43-.08,2.02,2.22,2.18,3.87Z"/>
  <path class="cls-1" d="M462.29,317.35c-.21,1.6.42,3.82-2.29,3.68-2.24-.1-1.91-2.04-1.93-3.51,0-1.66-.29-3.93,2.04-4.03,2.43-.08,2.02,2.22,2.18,3.87Z"/>
  <path class="cls-1" d="M435.29,261.41c-.02,1.43-.08,2.93-2.04,2.95-2.33.02-2.22-1.81-2.16-3.35.06-1.41-.5-3.28,1.87-3.62,2.24.5,2.35,2.22,2.33,4.01Z"/>
  <path class="cls-1" d="M441.59,317.01c-.12,1.37-.17,3.14-2.2,3.18-1.7.04-2.04-1.48-2.1-2.89-.08-1.41.08-2.79,1.91-2.95,1.75-.15,2.35.94,2.39,2.66Z"/>
  <path class="cls-1" d="M446.66,179.86c-7.68-.04-15.37-.42-23.05-.51-46.18-.51-161.4-1.7-161.47-1.01.46,1.3.51,2.11.29,2.62-.59,1.26-2.8.53-4.05.53-13.74.13-27.5.22-41.24.04-11.76-.18-19.31,6.45-23.85,16.23-1.03,2.22-1.54,4.87-1.65,7.62-.02.37-.02.77-.02,1.17.02,2.16.29,4.34.7,6.39,1.01,5,7.91,8.79,14.75,9.36,35.96,2.95,72,2.11,108.03,2.14,13.15.02,26.25.59,39.31,2.2,3.9.48,7.68-.37,11.38-1.17,9.91-2.14,20.06.04,30.01-1.94,3.46-.68,6.08-1.85,7.31-4.82,3.13-7.62,8.17-14.11,12.13-21.23,6.17-11.05,18.63-16.51,31.6-14.51l-.18-3.1Z"/>
</svg>