<?xml version="1.0" encoding="UTF-8"?>
<svg id="Layer_1" data-name="Layer 1" xmlns="http://www.w3.org/2000/svg" viewBox="0 0 500 500">
  <defs>
    <style>
      .cls-1 {
        fill: #13a3a3;
      }

      .cls-1, .cls-2, .cls-3, .cls-4, .cls-5, .cls-6, .cls-7, .cls-8, .cls-9, .cls-10 {
        stroke-width: 0px;
      }

      .cls-2, .cls-3, .cls-4, .cls-6, .cls-9 {
        fill: #00f6ff;
      }

      .cls-3 {
        opacity: .3;
      }

      .cls-4 {
        opacity: .6;
      }

      .cls-5 {
        fill: #29827f;
      }

      .cls-6 {
        opacity: .5;
      }

      .cls-7 {
        fill: #484848;
      }

      .cls-8 {
        fill: #7d4309;
      }

      .cls-9 {
        opacity: .4;
      }

      .cls-10 {
        fill: #24bcb8;
      }
    </style>
  </defs>
  <path class="cls-2" d="M437.6,327.03v.34h-5.25c1.77,0,3.52-.13,5.25-.34Z"/>
  <path class="cls-2" d="M437.6,173.5v.34c-1.73-.21-3.48-.34-5.25-.34h5.25Z"/>
  <path class="cls-6" d="M432.35,173.5c-15.19,0-28.96,8.19-39.11,21.48H-41.53v-21.48h473.88Z"/>
  <path class="cls-6" d="M432.35,327.37H-41.53v-21.48h434.77c10.15,13.29,23.92,21.48,39.11,21.48Z"/>
  <path class="cls-6" d="M385.2,292.72c1.75,3.61,3.71,7.01,5.87,10.17H-41.53v-104.91h432.6c-1.33,1.94-2.59,3.97-3.77,6.09h-249.08v88.65h246.98Z"/>
  <path class="cls-9" d="M442,174.64c-.73-.17-1.46-.32-2.2-.45-.73-.13-1.46-.25-2.2-.35-1.73-.21-3.48-.34-5.25-.34-15.19,0-28.96,8.19-39.11,21.48-.37.49-.75.99-1.12,1.5-.35.49-.7.99-1.05,1.5-1.33,1.94-2.59,3.97-3.77,6.09-.22.4-.43.8-.64,1.2-.21.4-.42.8-.63,1.2-.94,1.84-1.82,3.74-2.65,5.7-.82,1.95-1.58,3.95-2.28,6-.09.28-.18.55-.27.82-.09.28-.18.55-.27.82-2.99,9.39-4.66,19.74-4.66,30.62,0,9.33,1.22,18.28,3.45,26.55.08.28.16.54.24.82.07.27.15.54.23.82.39,1.34.8,2.66,1.24,3.96.9,2.66,1.9,5.25,3.01,7.74.18.41.38.8.56,1.2.19.4.37.8.57,1.2,1.75,3.61,3.71,7.01,5.87,10.17.35.5.7,1.01,1.05,1.5.37.51.75,1,1.12,1.5,10.15,13.29,23.92,21.48,39.11,21.48,1.77,0,3.52-.13,5.25-.34.74-.1,1.47-.22,2.2-.35.74-.13,1.47-.28,2.2-.45,26.58-6.25,46.8-37.79,46.8-75.8s-20.22-69.55-46.8-75.79ZM442,301.92c-.5.16-1,.33-1.5.47-.23.06-.47.11-.7.17-.27.07-.53.13-.8.19v.14h-.58c-.27.06-.55.09-.82.14-1.72.31-3.47.48-5.25.48-2.06,0-4.09-.21-6.07-.62-7.99-1.64-15.22-6.47-20.96-13.5-.41-.51-.81-1.02-1.2-1.55-.41-.54-.81-1.1-1.2-1.66-.41-.6-.81-1.2-1.2-1.82-1.15-1.81-2.21-3.73-3.18-5.74-.13-.27-.26-.55-.39-.82-.08-.17-.16-.34-.24-.51-.05-.11-.1-.21-.14-.31-3.72-8.33-5.86-18.12-5.86-28.58s2.14-20.26,5.86-28.59c.12-.28.26-.54.38-.82.13-.27.26-.54.39-.82.15-.3.29-.61.45-.92.84-1.68,1.76-3.28,2.73-4.82.39-.62.79-1.22,1.2-1.82.39-.56.79-1.12,1.2-1.66.39-.53.79-1.04,1.2-1.55,3.16-3.86,6.76-7.05,10.7-9.42.9-.54,1.81-1.05,2.75-1.5,1.17-.57,2.37-1.08,3.6-1.5,3.19-1.11,6.53-1.7,9.98-1.7,1.78,0,3.53.18,5.25.48.74.13,1.47.29,2.2.47.74.19,1.47.4,2.2.64,17.67,5.9,30.79,27.62,30.79,53.53s-13.12,47.62-30.79,53.52Z"/>
  <path class="cls-2" d="M439,302.75v.14h-.58c.19-.04.39-.09.58-.14Z"/>
  <path class="cls-9" d="M439,302.75v.14h-.58c.19-.04.39-.09.58-.14Z"/>
  <path class="cls-3" d="M472.79,248.4c0,25.9-13.12,47.62-30.79,53.52-.5.16-1,.33-1.5.47-.23.06-.47.11-.7.17-.27.07-.53.13-.8.19-.19.05-.39.1-.58.14-.27.06-.55.09-.82.14-1.72.31-3.47.48-5.25.48-2.06,0-4.09-.21-6.07-.62-7.99-1.64-15.22-6.47-20.96-13.5,13.89-4.05,24.31-20.86,24.31-40.99s-10.42-36.95-24.31-41c3.16-3.86,6.76-7.05,10.7-9.42.9-.54,1.81-1.05,2.75-1.5,1.17-.57,2.37-1.08,3.6-1.5,3.19-1.11,6.53-1.7,9.98-1.7,1.78,0,3.53.18,5.25.48.74.13,1.47.29,2.2.47.74.19,1.47.4,2.2.64,17.67,5.9,30.79,27.62,30.79,53.53Z"/>
  <path class="cls-6" d="M386.03,206.47c-.94,1.84-1.82,3.74-2.65,5.7-2.11,1.68-4.07,3.7-5.83,6h-236.93v-11.7h245.41Z"/>
  <path class="cls-6" d="M384.07,290.32h-243.45v-11.7h236.93c1.1,1.43,2.27,2.76,3.51,3.96.9,2.66,1.9,5.25,3.01,7.74Z"/>
  <path class="cls-6" d="M368.1,248.4c0,11.05,3.14,21.09,8.27,28.58h-235.75v-57.17h235.75c-5.13,7.49-8.27,17.53-8.27,28.59Z"/>
  <rect class="cls-2" x="149.86" y="219.81" width=".76" height="57.17"/>
  <path class="cls-9" d="M380.56,219.81c-2.99,9.39-4.66,19.74-4.66,30.62,0,9.33,1.22,18.28,3.45,26.55.08.28.16.54.24.82.07.27.15.54.23.82.39,1.34.8,2.66,1.24,3.96-1.24-1.2-2.41-2.53-3.51-3.96-.21-.27-.41-.54-.61-.82-.19-.27-.38-.54-.57-.82-5.13-7.49-8.27-17.53-8.27-28.58s3.14-21.1,8.27-28.59c.19-.28.38-.55.57-.82.2-.28.41-.55.61-.82,1.76-2.3,3.72-4.32,5.83-6-.82,1.95-1.58,3.95-2.28,6-.09.28-.18.55-.27.82-.09.28-.18.55-.27.82Z"/>
  <path class="cls-2" d="M402.49,276.91v.07h-.32c.11-.02.21-.05.32-.07Z"/>
  <path class="cls-9" d="M402.49,276.91v.07h-.32c.11-.02.21-.05.32-.07Z"/>
  <path class="cls-3" d="M420.9,247.28c0,14.12-7.15,25.96-16.78,29.17-.27.09-.54.18-.82.26-.12.03-.25.06-.38.09-.14.04-.29.07-.43.11-.11.02-.21.05-.32.07h-4.4c-3.72-8.33-5.86-18.12-5.86-28.58s2.14-20.26,5.86-28.59c.12-.28.26-.54.38-.82.13-.27.26-.54.39-.82.15-.3.29-.61.45-.92.92.01,1.84.1,2.73.26.41.07.81.16,1.2.26.41.1.8.22,1.2.35,9.63,3.21,16.78,15.05,16.78,29.16Z"/>
  <path class="cls-9" d="M401.72,276.98v.08c-.93.16-1.89.26-2.86.26-.32,0-.63-.02-.95-.03-.05-.11-.1-.21-.14-.31h3.95Z"/>
  <path class="cls-4" d="M401.72,276.98v.08c-.93.16-1.89.26-2.86.26-.32,0-.63-.02-.95-.03-.05-.11-.1-.21-.14-.31h3.95Z"/>
  <g>
    <path class="cls-3" d="M392.12,196.48c.37-.51.75-1.01,1.12-1.5H-31.53s-2.2,0-2.2,0h-2.2s-5.6,0-5.6,0v3h5.6v104.91h-5.6v3h434.77c-.37-.5-.75-.99-1.12-1.5-.35-.49-.7-1-1.05-1.5H-31.53s-1.4,0-1.4,0v-104.91h424c.35-.51.7-1.01,1.05-1.5Z"/>
    <path class="cls-3" d="M138.22,278.62v14.1h246.98c-.2-.4-.38-.8-.57-1.2-.18-.4-.38-.79-.56-1.2h-243.45v-11.7h-2.4Z"/>
    <path class="cls-3" d="M386.03,206.47c.21-.4.42-.8.63-1.2.21-.4.42-.8.64-1.2h-249.08v14.1h2.4v-11.7h245.41Z"/>
    <path class="cls-3" d="M140.62,219.81h7.6v57.17h-7.6v1.64h236.93c-.21-.27-.41-.54-.61-.82-.19-.27-.38-.54-.57-.82h-226.51v-57.17h226.51c.19-.28.38-.55.57-.82.2-.28.41-.55.61-.82h-236.93v1.64Z"/>
    <path class="cls-3" d="M401.72,276.98h-3.95c.04.1.09.2.14.31.32.01.63.03.95.03.97,0,1.93-.1,2.86-.26.15-.03.3-.05.45-.08h-.45Z"/>
  </g>
  <path class="cls-9" d="M402.17,276.98c-.15.03-.3.05-.45.08v-.08h.45Z"/>
  <path class="cls-4" d="M402.17,276.98c-.15.03-.3.05-.45.08v-.08h.45Z"/>
  <path class="cls-8" d="M421.58,116.59c-.66-.4-.71-.84-.07-1.32.64.4.65.84.07,1.32Z"/>
  <path class="cls-1" d="M46.38,354.96c-.55.35-.99.99-1.26,2.03-3.96-.04-7.95-.09-11.93-.13-.31-1.32-.97-1.89-1.76-2.11,3.08.07,8.26.13,14.95.22Z"/>
  <path class="cls-7" d="M31.43,354.74c.79.22,1.45.79,1.76,2.11,3.99.04,7.97.09,11.93.13.26-1.03.7-1.67,1.26-2.03-6.69-.09-11.87-.15-14.95-.22Z"/>
  <path class="cls-2" d="M172.24,142.77c.9,1.12,1.65,2.09,2.07,2.95h.02c.59,1.12.68,2.03.07,2.75-.55.66-1.72,1.15-3.63,1.5-4.78.86-9.03,4.76-10.99,8.59-6.74,13.19-15.5,25.21-21.18,38.95-1.52,3.74-2.86,7.42-4.67,11.08-4.03,8.21-10.7,8.65-17.57,7.6-9.34-1.41-18.61-.77-27.92-.86-9.16-.11-17.99-2.8-27.11-3.02-2.91-.11-5.84-.37-8.74-.42-4.18-.07-8.5.57-11.98-2.75-.24-.24-.68-.53-.97-.46-8.92,2.18-18.03-.95-26.91,1.08-1.34.29-2.27.75-3.41-.29-4.29-3.9-4.67-.64-4.84,2.86-.11,2.07-.2,4.14-.26,6.21-.15,3.08-.26,6.17-.35,9.27-.09,2.2-.15,4.43-.2,6.65-.86,34.31-.04,68.61-.24,102.92-.02,4.18-.07,8.39-.13,12.6,0,.26,0,.51.02.75v.04c0,.64-.02,1.28-.02,1.92-.02,2.53.46,3.99,2,4.56h-.99c-3.04-.02-4.38-2.27-4.29-5.31.11-4.21.22-8.43.22-12.64.07-63.61.09-127.23.15-190.84,0-8.92.02-8.98,8.68-8.9,48.02.51,96.05.59,144.05,1.74,12.75.31,25.48.15,38.23.46-6.19.02-12.31,2.11-19.09,1.01Z"/>
  <path class="cls-1" d="M18.85,357.47c-3.81,0-7.99.02-10.9.13-1.12.04-2-.07-2.66-.35,2.38.04,7.18.11,13.56.22Z"/>
  <path class="cls-1" d="M46.38,354.96c-.55.35-.99.99-1.26,2.03-3.96-.04-7.95-.09-11.93-.13-.31-1.32-.97-1.89-1.76-2.11,3.08.07,8.26.13,14.95.22Z"/>
  <path class="cls-10" d="M189.33,357.2c-.92-.24-1.81-.53-2.69-.84h-.02c-13.12-4.49-22.39-14.73-30.17-26.73-7.22-11.14-11.78-23.58-15.15-36.82-2.49-9.78-3.94-19.53-4.54-29.33-.09-1.34-.18-2.69-.22-4.03-.24-5.68-.2-11.38.09-17.11.77-15.44,3.06-30.56,9.4-45.05,4.16-9.51,8.24-19.03,13.98-27.52,3.83-5.68,8.81-10.55,14.38-14.58,6.3-4.58,12.4-9.56,20.52-10.24.2-.02.42-.07.59-.15.62-.31,1.08-.95.84-1.85-.33-1.17-1.43-.95-2.29-1.03-.44-.07-.9-.09-1.34-.11-.46-.02-.92-.04-1.39-.04-6.19.02-12.31,2.11-19.09,1.01.9,1.12,1.65,2.09,2.07,2.95h.02c.59,1.12.68,2.03.07,2.75-.55.66-1.72,1.15-3.63,1.5-4.78.86-9.03,4.76-10.99,8.59-6.74,13.19-15.5,25.21-21.18,38.95-1.52,3.74-2.86,7.42-4.67,11.08-4.03,8.21-10.7,8.65-17.57,7.6-9.34-1.41-18.61-.77-27.92-.86-9.16-.11-17.99-2.8-27.11-3.02-2.91-.11-5.84-.37-8.74-.42-4.18-.07-8.5.57-11.98-2.75-.24-.24-.68-.53-.97-.46-8.92,2.18-18.03-.95-26.91,1.08-1.34.29-2.27.75-3.41-.29-4.29-3.9-4.67-.64-4.84,2.86-.11,2.07-.2,4.14-.26,6.21-.15,3.08-.26,6.17-.35,9.27-.09,2.2-.15,4.43-.2,6.65-.86,34.31-.04,68.61-.24,102.92,0,4.45-.04,8.9-.11,13.34v.04c0,.64-.02,1.28-.02,1.92-.02,2.53.46,3.99,2,4.56,2.38.04,7.18.11,13.56.22,5.06,0,9.51.07,9.51.07.99,0,2.11-.24,3.06.04,3.08.07,168.85,1.7,169.55,1.26-4.18-.07-8.06-.64-11.65-1.63ZM45.12,356.98c-3.96-.04-7.95-.09-11.93-.13-.31-1.32-.97-1.89-1.76-2.11,3.08.07,8.26.13,14.95.22-.55.35-.99.99-1.26,2.03Z"/>
  <g>
    <path class="cls-5" d="M248.43,333.22c-2.36,6.72-7.91,10.83-13.1,14.95-12.15,9.6-26.09,12.86-41.62,12.2-23.05-.95-46.13-.7-69.21-1.08-19.91-.33-77.86-1.37-105.65-1.83,5.06,0,9.51.07,9.51.07.99,0,2.11-.24,3.06.04,3.08.07,168.85,1.7,169.55,1.26-4.18-.07-8.06-.64-11.65-1.63-.92-.24-1.81-.53-2.69-.84h-.02c-13.12-4.49-22.39-14.73-30.17-26.73-7.22-11.14-11.78-23.58-15.15-36.82-2.49-9.78-3.94-19.53-4.54-29.33-.09-1.34-.15-2.69-.22-4.03-.24-5.68-.2-11.38.09-17.11.77-15.44,3.06-30.56,9.4-45.05,4.16-9.51,8.24-19.03,13.98-27.52,3.83-5.68,8.81-10.55,14.38-14.58,6.3-4.58,12.4-9.56,20.52-10.24.2-.02.42-.07.59-.15.62-.31,1.08-.95.84-1.85-.33-1.17-1.43-.95-2.29-1.03-.44-.07-.9-.09-1.34-.11,5.28.13,10.57.37,15.85.77,10.99.79,20.04,5.24,28.05,12.18,5.46,4.73,11.27,9.31,14.53,16.1-16.65.07-33.38,1.12-49.94-.15-12.42-.97-21.14,5.57-27.44,13.08-8.74,10.42-17.95,21.49-19.31,36.57-.62,6.98-5.31,13.19-4.93,20.83.31,6.36,2.33,12.86-.75,19.31-.97,2.03-.62,5.04.46,7.51,3.3,7.64,4.69,15.9,7.55,23.63,5.73,15.48,13.94,29,29.92,36.16,2.4,1.08,4.12,3.66,7.11,3.79,18.19.79,36.46-1.65,54.59,1.65Z"/>
    <path class="cls-5" d="M251.65,328.55c-.07.68-.13,1.34-.2,2.03-.02.04-.07.11-.09.15-.73,1.12-1.45,2.25-2.93,2.49-18.12-3.3-36.4-.86-54.59-1.65-2.99-.13-4.71-2.71-7.11-3.79-15.99-7.16-24.2-20.68-29.92-36.16-2.86-7.73-4.25-15.99-7.55-23.63-1.08-2.47-1.43-5.48-.46-7.51,3.08-6.45,1.06-12.95.75-19.31-.37-7.64,4.32-13.85,4.93-20.83,1.37-15.08,10.57-26.16,19.31-36.57,6.3-7.51,15.02-14.05,27.44-13.08,16.56,1.28,33.29.22,49.94.15.44.53,1.21,2.88,1.15,3.57-15.74-.04-31.49-.22-47.23-.09-.42,0-.86.02-1.28.04-1.3.04-2.62.18-3.9.4-.44.07-.86.15-1.3.24-1.26.26-2.51.62-3.68,1.08-18.12,7.05-27.57,21.62-33.47,39.2-2.53,7.53-2.18,15.48-3.44,23.12-.55,3.44-.77,6.83-.75,10.2.07,8.65,1.7,17.13,2.91,25.63,2.07,14.69,9.07,27.37,18.67,38.6,6.25,7.35,14.22,12.4,23.8,13.19,14,1.15,28.1,1.7,42.17,1.23,2.33-.09,4.8-.46,6.83,1.3Z"/>
  </g>
  <path class="cls-9" d="M429.63,248.4c0,20.13-10.42,36.94-24.31,40.99-.41-.51-.81-1.02-1.2-1.55-.41-.54-.81-1.1-1.2-1.66-.41-.6-.81-1.2-1.2-1.82-1.15-1.81-2.21-3.73-3.18-5.74-.13-.27-.26-.55-.39-.82-.08-.17-.16-.34-.24-.51.32.01.63.03.95.03.97,0,1.93-.1,2.86-.26.15-.03.3-.05.45-.08h.32v-.07c.14-.04.29-.07.43-.11.13-.03.26-.06.38-.09.28-.08.55-.17.82-.26,9.63-3.21,16.78-15.05,16.78-29.17s-7.15-25.95-16.78-29.16c-.4-.13-.79-.25-1.2-.35-.39-.1-.79-.19-1.2-.26-.89-.16-1.81-.25-2.73-.26.84-1.68,1.76-3.28,2.73-4.82.39-.62.79-1.22,1.2-1.82.39-.56.79-1.12,1.2-1.66.39-.53.79-1.04,1.2-1.55,13.89,4.05,24.31,20.86,24.31,41Z"/>
</svg>