<?xml version="1.0" encoding="UTF-8"?>
<svg id="_전압스파이크" data-name="전압스파이크" xmlns="http://www.w3.org/2000/svg" viewBox="0 0 500 400">
  <defs>
    <style>
      .cls-1 {
        stroke: #a5a5a5;
      }

      .cls-1, .cls-2 {
        fill: none;
        stroke-linecap: round;
        stroke-linejoin: round;
        stroke-width: 5px;
      }

      .cls-3 {
        fill: #fff;
        font-family: NotoSansKR-Black, 'Noto Sans KR';
        font-size: 14.95px;
        font-variation-settings: 'wght' 900;
        font-weight: 800;
      }

      .cls-2 {
        stroke: #fff;
      }
    </style>
  </defs>
  <g>
    <line class="cls-1" x1="84.93" y1="212.91" x2="407.14" y2="212.91"/>
    <polyline class="cls-1" points="399.39 205.16 407.14 212.91 399.48 220.57"/>
  </g>
  <g>
    <polyline class="cls-1" points="77.23 57.12 84.97 49.38 92.63 57.03"/>
    <line class="cls-1" x1="84.93" y1="374.01" x2="84.93" y2="51.81"/>
  </g>
  <text class="cls-3" transform="translate(80.12 39.14)"><tspan x="0" y="0">V</tspan></text>
  <text class="cls-3" transform="translate(416.12 218.45)"><tspan x="0" y="0">t</tspan></text>
  <path class="cls-2" d="M87.27,212.91s16.9-103.27,53.12-103.27c13.71,0,24.89,18.89,35.69,45.2,2.26,5.51,6.76-99.98,6.76-99.98,0,0,4.3,129.14,6.48,135.24,20.45,57.28,42.72,124.16,81.23,124.16,67.36,0,70.63-204.61,114.48-204.61"/>
</svg>