<?xml version="1.0" encoding="UTF-8"?>
<svg id="Layer_1" data-name="Layer 1" xmlns="http://www.w3.org/2000/svg" viewBox="0 0 500 500">
  <defs>
    <style>
      .cls-1 {
        fill: #d37d0f;
      }

      .cls-1, .cls-2, .cls-3, .cls-4 {
        stroke-width: 0px;
      }

      .cls-2 {
        fill: #484848;
      }

      .cls-3 {
        fill: #7d4309;
      }

      .cls-4 {
        fill: #2b2b2b;
      }
    </style>
  </defs>
  <path class="cls-3" d="M468.52,137.61c.1-1.16-.46-2.42.53-3.45-.14,1.16.48,2.43-.53,3.45Z"/>
  <path class="cls-3" d="M469.58,116.59c-.66-.4-.71-.84-.07-1.32.64.4.65.84.07,1.32Z"/>
  <g>
    <path class="cls-1" d="M478.34,304.99c-10.68,19.2-25.81,30.14-48.93,28.12-.57-.04-1.21-.09-1.94-.13.44-.04.88-.09,1.32-.15-.42-.97-.95-1.7-1.54-2.25-1.98-1.85-4.8-1.96-6.69-3.57-14.69-12.46-23.54-28.52-26.34-47.43-1.23-8.37-1.96-16.69-1.94-24.93.09-17.11,3.5-33.8,12.62-49.5,7.07-12.15,15.57-22.86,30.89-24.49.73-.07,1.12-.57,1.19-1.28.02-.09.02-.18.02-.29v-.07c-12.97-2-25.43,3.46-31.6,14.51-3.96,7.11-9.01,13.61-12.13,21.23-1.23,2.97-3.85,4.14-7.31,4.82-9.95,1.98-20.1-.2-30.01,1.94-3.7.79-7.49,1.65-11.38,1.17-13.06-1.61-26.16-2.18-39.31-2.2-36.02-.02-72.07.81-108.03-2.14-6.85-.57-13.74-4.36-14.75-9.36-.42-2.05-.68-4.23-.7-6.39,0-.4,0-.79.02-1.17.11-2.75.62-5.39,1.65-7.62,4.54-9.78,12.09-16.4,23.85-16.23,13.74.18,27.5.09,41.24-.04,1.26,0,3.46.73,4.05-.53.22-.51.18-1.32-.29-2.62.07-.68,115.3.51,161.47,1.01,7.68.09,15.37.46,23.05.51,18.23.11,31.11,8.94,40.16,24.27,7.71,12.99,12.04,26.93,12.99,42.06,1.39,21.93-.73,43.11-11.65,62.73Z"/>
    <path class="cls-1" d="M248.54,177.57c-13.74.13-27.5.22-41.24.04-11.76-.18-19.31,6.45-23.85,16.23-1.03,2.22-1.54,4.87-1.65,7.62.07-2.84.55-5.59,1.65-7.91,4.54-9.64,12.09-16.16,23.85-16.01,13.74.2,27.5.09,41.24-.02,1.26-.02,3.44.68,4.05-.48-.59,1.26-2.8.53-4.05.53Z"/>
    <path class="cls-1" d="M436.99,179.39c-.07.7-.46,1.21-1.19,1.28-15.33,1.63-23.83,12.33-30.89,24.49-9.12,15.7-12.53,32.39-12.62,49.5-.07-17.26,3.28-34.13,12.62-49.96,7.07-11.98,15.57-22.53,30.89-24.11.7-.07,1.1-.55,1.19-1.19Z"/>
    <path class="cls-4" d="M46.38,354.96c-.55.35-.99.99-1.26,2.03-3.96-.04-7.95-.09-11.93-.13-.31-1.32-.97-1.89-1.76-2.11,3.08.07,8.26.13,14.95.22Z"/>
    <path class="cls-2" d="M31.43,354.74c.79.22,1.45.79,1.76,2.11,3.99.04,7.97.09,11.93.13.26-1.03.7-1.67,1.26-2.03-6.69-.09-11.87-.15-14.95-.22Z"/>
    <path class="cls-2" d="M172.24,142.77c.9,1.12,1.65,2.09,2.07,2.95h.02c.59,1.12.68,2.03.07,2.75-.55.66-1.72,1.15-3.63,1.5-4.78.86-9.03,4.76-10.99,8.59-6.74,13.19-15.5,25.21-21.18,38.95-1.52,3.74-2.86,7.42-4.67,11.08-4.03,8.21-10.7,8.65-17.57,7.6-9.34-1.41-18.61-.77-27.92-.86-9.16-.11-17.99-2.8-27.11-3.02-2.91-.11-5.84-.37-8.74-.42-4.18-.07-8.5.57-11.98-2.75-.24-.24-.68-.53-.97-.46-8.92,2.18-18.03-.95-26.91,1.08-1.34.29-2.27.75-3.41-.29-4.29-3.9-4.67-.64-4.84,2.86-.11,2.07-.2,4.14-.26,6.21-.15,3.08-.26,6.17-.35,9.27-.09,2.2-.15,4.43-.2,6.65-.86,34.31-.04,68.61-.24,102.92-.02,4.18-.07,8.39-.13,12.6,0,.26,0,.51.02.75v.04c0,.64-.02,1.28-.02,1.92-.02,2.53.46,3.99,2,4.56h-.99c-3.04-.02-4.38-2.27-4.29-5.31.11-4.21.22-8.43.22-12.64.07-63.61.09-127.23.15-190.84,0-8.92.02-8.98,8.68-8.9,48.02.51,96.05.59,144.05,1.74,12.75.31,25.48.15,38.23.46-6.19.02-12.31,2.11-19.09,1.01Z"/>
    <path class="cls-2" d="M248.43,333.22c-2.36,6.72-7.91,10.83-13.1,14.95-12.15,9.6-26.09,12.86-41.62,12.2-23.05-.95-46.13-.7-69.21-1.08-19.91-.33-77.86-1.37-105.65-1.83,5.06,0,9.51.07,9.51.07.99,0,2.11-.24,3.06.04,3.08.07,168.85,1.7,169.55,1.26-4.18-.07-8.06-.64-11.65-1.63-.92-.24-1.81-.53-2.69-.84h-.02c-13.12-4.49-22.39-14.73-30.17-26.73-7.22-11.14-11.78-23.58-15.15-36.82-2.49-9.78-3.94-19.53-4.54-29.33-.09-1.34-.15-2.69-.22-4.03-.24-5.68-.2-11.38.09-17.11.77-15.44,3.06-30.56,9.4-45.05,4.16-9.51,8.24-19.03,13.98-27.52,3.83-5.68,8.81-10.55,14.38-14.58,6.3-4.58,12.4-9.56,20.52-10.24.2-.02.42-.07.59-.15.62-.31,1.08-.95.84-1.85-.33-1.17-1.43-.95-2.29-1.03-.44-.07-.9-.09-1.34-.11,5.28.13,10.57.37,15.85.77,10.99.79,20.04,5.24,28.05,12.18,5.46,4.73,11.27,9.31,14.53,16.1-16.65.07-33.38,1.12-49.94-.15-12.42-.97-21.14,5.57-27.44,13.08-8.74,10.42-17.95,21.49-19.31,36.57-.62,6.98-5.31,13.19-4.93,20.83.31,6.36,2.33,12.86-.75,19.31-.97,2.03-.62,5.04.46,7.51,3.3,7.64,4.69,15.9,7.55,23.63,5.73,15.48,13.94,29,29.92,36.16,2.4,1.08,4.12,3.66,7.11,3.79,18.19.79,36.46-1.65,54.59,1.65Z"/>
    <path class="cls-4" d="M18.85,357.47c-3.81,0-7.99.02-10.9.13-1.12.04-2-.07-2.66-.35,2.38.04,7.18.11,13.56.22Z"/>
    <path class="cls-4" d="M46.38,354.96c-.55.35-.99.99-1.26,2.03-3.96-.04-7.95-.09-11.93-.13-.31-1.32-.97-1.89-1.76-2.11,3.08.07,8.26.13,14.95.22Z"/>
    <path class="cls-4" d="M189.33,357.2c-.92-.24-1.81-.53-2.69-.84h-.02c-13.12-4.49-22.39-14.73-30.17-26.73-7.22-11.14-11.78-23.58-15.15-36.82-2.49-9.78-3.94-19.53-4.54-29.33-.09-1.34-.18-2.69-.22-4.03-.24-5.68-.2-11.38.09-17.11.77-15.44,3.06-30.56,9.4-45.05,4.16-9.51,8.24-19.03,13.98-27.52,3.83-5.68,8.81-10.55,14.38-14.58,6.3-4.58,12.4-9.56,20.52-10.24.2-.02.42-.07.59-.15.62-.31,1.08-.95.84-1.85-.33-1.17-1.43-.95-2.29-1.03-.44-.07-.9-.09-1.34-.11-.46-.02-.92-.04-1.39-.04-6.19.02-12.31,2.11-19.09,1.01.9,1.12,1.65,2.09,2.07,2.95h.02c.59,1.12.68,2.03.07,2.75-.55.66-1.72,1.15-3.63,1.5-4.78.86-9.03,4.76-10.99,8.59-6.74,13.19-15.5,25.21-21.18,38.95-1.52,3.74-2.86,7.42-4.67,11.08-4.03,8.21-10.7,8.65-17.57,7.6-9.34-1.41-18.61-.77-27.92-.86-9.16-.11-17.99-2.8-27.11-3.02-2.91-.11-5.84-.37-8.74-.42-4.18-.07-8.5.57-11.98-2.75-.24-.24-.68-.53-.97-.46-8.92,2.18-18.03-.95-26.91,1.08-1.34.29-2.27.75-3.41-.29-4.29-3.9-4.67-.64-4.84,2.86-.11,2.07-.2,4.14-.26,6.21-.15,3.08-.26,6.17-.35,9.27-.09,2.2-.15,4.43-.2,6.65-.86,34.31-.04,68.61-.24,102.92,0,4.45-.04,8.9-.11,13.34v.04c0,.64-.02,1.28-.02,1.92-.02,2.53.46,3.99,2,4.56,2.38.04,7.18.11,13.56.22,5.06,0,9.51.07,9.51.07.99,0,2.11-.24,3.06.04,3.08.07,168.85,1.7,169.55,1.26-4.18-.07-8.06-.64-11.65-1.63ZM45.12,356.98c-3.96-.04-7.95-.09-11.93-.13-.31-1.32-.97-1.89-1.76-2.11,3.08.07,8.26.13,14.95.22-.55.35-.99.99-1.26,2.03Z"/>
    <path class="cls-4" d="M251.65,328.55c-.07.68-.13,1.34-.2,2.03-.02.04-.07.11-.09.15-.73,1.12-1.45,2.25-2.93,2.49-18.12-3.3-36.4-.86-54.59-1.65-2.99-.13-4.71-2.71-7.11-3.79-15.99-7.16-24.2-20.68-29.92-36.16-2.86-7.73-4.25-15.99-7.55-23.63-1.08-2.47-1.43-5.48-.46-7.51,3.08-6.45,1.06-12.95.75-19.31-.37-7.64,4.32-13.85,4.93-20.83,1.37-15.08,10.57-26.16,19.31-36.57,6.3-7.51,15.02-14.05,27.44-13.08,16.56,1.28,33.29.22,49.94.15.44.53,1.21,2.88,1.15,3.57-15.74-.04-31.49-.22-47.23-.09-.42,0-.86.02-1.28.04-1.3.04-2.62.18-3.9.4-.44.07-.86.15-1.3.24-1.26.26-2.51.62-3.68,1.08-18.12,7.05-27.57,21.62-33.47,39.2-2.53,7.53-2.18,15.48-3.44,23.12-.55,3.44-.77,6.83-.75,10.2.07,8.65,1.7,17.13,2.91,25.63,2.07,14.69,9.07,27.37,18.67,38.6,6.25,7.35,14.22,12.4,23.8,13.19,14,1.15,28.1,1.7,42.17,1.23,2.33-.09,4.8-.46,6.83,1.3Z"/>
    <path class="cls-3" d="M437.01,179.11c0,.11,0,.2-.02.29-.07.7-.46,1.21-1.19,1.28-15.33,1.63-23.83,12.33-30.89,24.49-9.12,15.7-12.53,32.39-12.62,49.5-.02,8.24.7,16.56,1.94,24.93,2.8,18.91,11.65,34.97,26.34,47.43,1.89,1.61,4.71,1.72,6.69,3.57.59.55,1.12,1.28,1.54,2.25-.44.07-.88.11-1.32.15-2.55-.18-6.08-.33-10.35-.48-3.46-.13-7.42-.24-11.78-.35-14-.33-32.13-.59-51-.81h-.13c-44.63-.53-93.36-.73-101.6-.75-.33.11-.64.22-.97.37-2.03-1.78-4.49-1.41-6.83-1.32-14.07.46-28.16-.09-42.17-1.26-9.58-.81-17.55-5.92-23.8-13.39-9.6-11.41-16.6-24.29-18.67-39.2-1.67-12-4.16-23.91-2.16-36.38,1.26-7.77.9-15.83,3.44-23.5,5.9-17.84,15.35-32.66,33.47-39.81,3.13-1.23,6.74-1.74,10.15-1.78,15.74-.13,31.49.04,47.23.09.46,1.3.51,2.11.29,2.62-.59,1.26-2.8.53-4.05.53-13.74.13-27.5.22-41.24.04-11.76-.18-19.31,6.45-23.85,16.23-1.03,2.22-1.54,4.87-1.65,7.62-.02.37-.02.77-.02,1.17,0,2.33.26,4.69.7,6.91,1.01,5.11,7.91,8.94,14.75,9.51,35.96,3.02,72,2.16,108.03,2.18,13.15,0,26.25.59,39.31,2.25,3.9.48,7.68-.4,11.38-1.19,9.91-2.18,20.06.02,30.01-1.98,3.46-.68,6.08-1.87,7.31-4.91,3.13-7.73,8.17-14.31,12.13-21.54,6.17-11.23,18.63-16.78,31.6-14.75Z"/>
    <path class="cls-3" d="M405.34,332.14c-17,.04-34-.42-51-.81,18.87.22,36.99.48,51,.81Z"/>
  </g>
</svg>